<svg width="215" height="64" viewBox="0 0 215 64" fill="none" xmlns="http://www.w3.org/2000/svg">
<rect x="0.5" y="0.5" width="214" height="63" rx="14.5" stroke="black"/>
<path d="M57.78 35.9H51.7L50.58 39H48.66L53.7 25.14H55.8L60.82 39H58.9L57.78 35.9ZM57.26 34.42L54.74 27.38L52.22 34.42H57.26ZM62.3366 33.48C62.3366 32.36 62.5632 31.38 63.0166 30.54C63.4699 29.6867 64.0899 29.0267 64.8766 28.56C65.6766 28.0933 66.5699 27.86 67.5566 27.86C68.4099 27.86 69.2032 28.06 69.9366 28.46C70.6699 28.8467 71.2299 29.36 71.6166 30V24.2H73.4566V39H71.6166V36.94C71.2566 37.5933 70.7232 38.1333 70.0166 38.56C69.3099 38.9733 68.4832 39.18 67.5366 39.18C66.5632 39.18 65.6766 38.94 64.8766 38.46C64.0899 37.98 63.4699 37.3067 63.0166 36.44C62.5632 35.5733 62.3366 34.5867 62.3366 33.48ZM71.6166 33.5C71.6166 32.6733 71.4499 31.9533 71.1166 31.34C70.7832 30.7267 70.3299 30.26 69.7566 29.94C69.1966 29.6067 68.5766 29.44 67.8966 29.44C67.2166 29.44 66.5966 29.6 66.0366 29.92C65.4766 30.24 65.0299 30.7067 64.6966 31.32C64.3632 31.9333 64.1966 32.6533 64.1966 33.48C64.1966 34.32 64.3632 35.0533 64.6966 35.68C65.0299 36.2933 65.4766 36.7667 66.0366 37.1C66.5966 37.42 67.2166 37.58 67.8966 37.58C68.5766 37.58 69.1966 37.42 69.7566 37.1C70.3299 36.7667 70.7832 36.2933 71.1166 35.68C71.4499 35.0533 71.6166 34.3267 71.6166 33.5ZM75.8522 33.48C75.8522 32.36 76.0789 31.38 76.5322 30.54C76.9855 29.6867 77.6055 29.0267 78.3922 28.56C79.1922 28.0933 80.0855 27.86 81.0722 27.86C81.9255 27.86 82.7189 28.06 83.4522 28.46C84.1855 28.8467 84.7455 29.36 85.1322 30V24.2H86.9722V39H85.1322V36.94C84.7722 37.5933 84.2389 38.1333 83.5322 38.56C82.8255 38.9733 81.9989 39.18 81.0522 39.18C80.0789 39.18 79.1922 38.94 78.3922 38.46C77.6055 37.98 76.9855 37.3067 76.5322 36.44C76.0789 35.5733 75.8522 34.5867 75.8522 33.48ZM85.1322 33.5C85.1322 32.6733 84.9655 31.9533 84.6322 31.34C84.2989 30.7267 83.8455 30.26 83.2722 29.94C82.7122 29.6067 82.0922 29.44 81.4122 29.44C80.7322 29.44 80.1122 29.6 79.5522 29.92C78.9922 30.24 78.5455 30.7067 78.2122 31.32C77.8789 31.9333 77.7122 32.6533 77.7122 33.48C77.7122 34.32 77.8789 35.0533 78.2122 35.68C78.5455 36.2933 78.9922 36.7667 79.5522 37.1C80.1122 37.42 80.7322 37.58 81.4122 37.58C82.0922 37.58 82.7122 37.42 83.2722 37.1C83.8455 36.7667 84.2989 36.2933 84.6322 35.68C84.9655 35.0533 85.1322 34.3267 85.1322 33.5ZM103.96 25.06V26.54H100.16V39H98.3398V26.54H94.5198V25.06H103.96ZM110.98 39.18C109.953 39.18 109.02 38.9467 108.18 38.48C107.353 38.0133 106.7 37.3533 106.22 36.5C105.753 35.6333 105.52 34.6333 105.52 33.5C105.52 32.38 105.76 31.3933 106.24 30.54C106.733 29.6733 107.4 29.0133 108.24 28.56C109.08 28.0933 110.02 27.86 111.06 27.86C112.1 27.86 113.04 28.0933 113.88 28.56C114.72 29.0133 115.38 29.6667 115.86 30.52C116.353 31.3733 116.6 32.3667 116.6 33.5C116.6 34.6333 116.347 35.6333 115.84 36.5C115.347 37.3533 114.673 38.0133 113.82 38.48C112.967 38.9467 112.02 39.18 110.98 39.18ZM110.98 37.58C111.633 37.58 112.247 37.4267 112.82 37.12C113.393 36.8133 113.853 36.3533 114.2 35.74C114.56 35.1267 114.74 34.38 114.74 33.5C114.74 32.62 114.567 31.8733 114.22 31.26C113.873 30.6467 113.42 30.1933 112.86 29.9C112.3 29.5933 111.693 29.44 111.04 29.44C110.373 29.44 109.76 29.5933 109.2 29.9C108.653 30.1933 108.213 30.6467 107.88 31.26C107.547 31.8733 107.38 32.62 107.38 33.5C107.38 34.3933 107.54 35.1467 107.86 35.76C108.193 36.3733 108.633 36.8333 109.18 37.14C109.727 37.4333 110.327 37.58 110.98 37.58ZM123.645 32.02C123.645 30.66 123.952 29.44 124.565 28.36C125.178 27.2667 126.012 26.4133 127.065 25.8C128.132 25.1867 129.312 24.88 130.605 24.88C132.125 24.88 133.452 25.2467 134.585 25.98C135.718 26.7133 136.545 27.7533 137.065 29.1H134.885C134.498 28.26 133.938 27.6133 133.205 27.16C132.485 26.7067 131.618 26.48 130.605 26.48C129.632 26.48 128.758 26.7067 127.985 27.16C127.212 27.6133 126.605 28.26 126.165 29.1C125.725 29.9267 125.505 30.9 125.505 32.02C125.505 33.1267 125.725 34.1 126.165 34.94C126.605 35.7667 127.212 36.4067 127.985 36.86C128.758 37.3133 129.632 37.54 130.605 37.54C131.618 37.54 132.485 37.32 133.205 36.88C133.938 36.4267 134.498 35.78 134.885 34.94H137.065C136.545 36.2733 135.718 37.3067 134.585 38.04C133.452 38.76 132.125 39.12 130.605 39.12C129.312 39.12 128.132 38.82 127.065 38.22C126.012 37.6067 125.178 36.76 124.565 35.68C123.952 34.6 123.645 33.38 123.645 32.02ZM139.094 33.48C139.094 32.36 139.321 31.38 139.774 30.54C140.228 29.6867 140.848 29.0267 141.634 28.56C142.434 28.0933 143.321 27.86 144.294 27.86C145.254 27.86 146.088 28.0667 146.794 28.48C147.501 28.8933 148.028 29.4133 148.374 30.04V28.04H150.214V39H148.374V36.96C148.014 37.6 147.474 38.1333 146.754 38.56C146.048 38.9733 145.221 39.18 144.274 39.18C143.301 39.18 142.421 38.94 141.634 38.46C140.848 37.98 140.228 37.3067 139.774 36.44C139.321 35.5733 139.094 34.5867 139.094 33.48ZM148.374 33.5C148.374 32.6733 148.208 31.9533 147.874 31.34C147.541 30.7267 147.088 30.26 146.514 29.94C145.954 29.6067 145.334 29.44 144.654 29.44C143.974 29.44 143.354 29.6 142.794 29.92C142.234 30.24 141.788 30.7067 141.454 31.32C141.121 31.9333 140.954 32.6533 140.954 33.48C140.954 34.32 141.121 35.0533 141.454 35.68C141.788 36.2933 142.234 36.7667 142.794 37.1C143.354 37.42 143.974 37.58 144.654 37.58C145.334 37.58 145.954 37.42 146.514 37.1C147.088 36.7667 147.541 36.2933 147.874 35.68C148.208 35.0533 148.374 34.3267 148.374 33.5ZM155.11 29.82C155.43 29.1933 155.883 28.7067 156.47 28.36C157.07 28.0133 157.797 27.84 158.65 27.84V29.72H158.17C156.13 29.72 155.11 30.8267 155.11 33.04V39H153.29V28.04H155.11V29.82ZM162.971 29.54V36C162.971 36.5333 163.084 36.9133 163.311 37.14C163.538 37.3533 163.931 37.46 164.491 37.46H165.831V39H164.191C163.178 39 162.418 38.7667 161.911 38.3C161.404 37.8333 161.151 37.0667 161.151 36V29.54H159.731V28.04H161.151V25.28H162.971V28.04H165.831V29.54H162.971Z" fill="black"/>
</svg>
