<svg width="215" height="64" viewBox="0 0 215 64" fill="none" xmlns="http://www.w3.org/2000/svg">
<rect x="0.5" y="0.5" width="214" height="63" rx="14.5" stroke="black"/>
<path d="M60.731 33.479H55.832V38.447H53.877V33.479H49.001V31.708H53.877V26.717H55.832V31.708H60.731V33.479Z" fill="black"/>
<path d="M73.86 32.52C73.86 31.16 74.1667 29.94 74.78 28.86C75.3933 27.7667 76.2267 26.9133 77.28 26.3C78.3467 25.6867 79.5267 25.38 80.82 25.38C82.34 25.38 83.6667 25.7467 84.8 26.48C85.9333 27.2133 86.76 28.2533 87.28 29.6H85.1C84.7133 28.76 84.1533 28.1133 83.42 27.66C82.7 27.2067 81.8333 26.98 80.82 26.98C79.8467 26.98 78.9733 27.2067 78.2 27.66C77.4267 28.1133 76.82 28.76 76.38 29.6C75.94 30.4267 75.72 31.4 75.72 32.52C75.72 33.6267 75.94 34.6 76.38 35.44C76.82 36.2667 77.4267 36.9067 78.2 37.36C78.9733 37.8133 79.8467 38.04 80.82 38.04C81.8333 38.04 82.7 37.82 83.42 37.38C84.1533 36.9267 84.7133 36.28 85.1 35.44H87.28C86.76 36.7733 85.9333 37.8067 84.8 38.54C83.6667 39.26 82.34 39.62 80.82 39.62C79.5267 39.62 78.3467 39.32 77.28 38.72C76.2267 38.1067 75.3933 37.26 74.78 36.18C74.1667 35.1 73.86 33.88 73.86 32.52ZM94.7692 39.68C93.7426 39.68 92.8092 39.4467 91.9692 38.98C91.1426 38.5133 90.4892 37.8533 90.0092 37C89.5426 36.1333 89.3092 35.1333 89.3092 34C89.3092 32.88 89.5492 31.8933 90.0292 31.04C90.5226 30.1733 91.1892 29.5133 92.0292 29.06C92.8692 28.5933 93.8092 28.36 94.8492 28.36C95.8892 28.36 96.8292 28.5933 97.6692 29.06C98.5092 29.5133 99.1692 30.1667 99.6492 31.02C100.143 31.8733 100.389 32.8667 100.389 34C100.389 35.1333 100.136 36.1333 99.6292 37C99.1359 37.8533 98.4626 38.5133 97.6092 38.98C96.7559 39.4467 95.8092 39.68 94.7692 39.68ZM94.7692 38.08C95.4226 38.08 96.0359 37.9267 96.6092 37.62C97.1826 37.3133 97.6426 36.8533 97.9892 36.24C98.3492 35.6267 98.5292 34.88 98.5292 34C98.5292 33.12 98.3559 32.3733 98.0092 31.76C97.6626 31.1467 97.2092 30.6933 96.6492 30.4C96.0892 30.0933 95.4826 29.94 94.8292 29.94C94.1626 29.94 93.5492 30.0933 92.9892 30.4C92.4426 30.6933 92.0026 31.1467 91.6692 31.76C91.3359 32.3733 91.1692 33.12 91.1692 34C91.1692 34.8933 91.3292 35.6467 91.6492 36.26C91.9826 36.8733 92.4226 37.3333 92.9692 37.64C93.5159 37.9333 94.1159 38.08 94.7692 38.08ZM115.962 28.34C116.816 28.34 117.576 28.52 118.242 28.88C118.909 29.2267 119.436 29.7533 119.822 30.46C120.209 31.1667 120.402 32.0267 120.402 33.04V39.5H118.602V33.3C118.602 32.2067 118.329 31.3733 117.782 30.8C117.249 30.2133 116.522 29.92 115.602 29.92C114.656 29.92 113.902 30.2267 113.342 30.84C112.782 31.44 112.502 32.3133 112.502 33.46V39.5H110.702V33.3C110.702 32.2067 110.429 31.3733 109.882 30.8C109.349 30.2133 108.622 29.92 107.702 29.92C106.756 29.92 106.002 30.2267 105.442 30.84C104.882 31.44 104.602 32.3133 104.602 33.46V39.5H102.782V28.54H104.602V30.12C104.962 29.5467 105.442 29.1067 106.042 28.8C106.656 28.4933 107.329 28.34 108.062 28.34C108.982 28.34 109.796 28.5467 110.502 28.96C111.209 29.3733 111.736 29.98 112.082 30.78C112.389 30.0067 112.896 29.4067 113.602 28.98C114.309 28.5533 115.096 28.34 115.962 28.34ZM125.208 30.56C125.568 29.9333 126.101 29.4133 126.808 29C127.528 28.5733 128.361 28.36 129.308 28.36C130.281 28.36 131.161 28.5933 131.948 29.06C132.748 29.5267 133.374 30.1867 133.828 31.04C134.281 31.88 134.508 32.86 134.508 33.98C134.508 35.0867 134.281 36.0733 133.828 36.94C133.374 37.8067 132.748 38.48 131.948 38.96C131.161 39.44 130.281 39.68 129.308 39.68C128.374 39.68 127.548 39.4733 126.828 39.06C126.121 38.6333 125.581 38.1067 125.208 37.48V44.7H123.388V28.54H125.208V30.56ZM132.648 33.98C132.648 33.1533 132.481 32.4333 132.148 31.82C131.814 31.2067 131.361 30.74 130.788 30.42C130.228 30.1 129.608 29.94 128.928 29.94C128.261 29.94 127.641 30.1067 127.068 30.44C126.508 30.76 126.054 31.2333 125.708 31.86C125.374 32.4733 125.208 33.1867 125.208 34C125.208 34.8267 125.374 35.5533 125.708 36.18C126.054 36.7933 126.508 37.2667 127.068 37.6C127.641 37.92 128.261 38.08 128.928 38.08C129.608 38.08 130.228 37.92 130.788 37.6C131.361 37.2667 131.814 36.7933 132.148 36.18C132.481 35.5533 132.648 34.82 132.648 33.98ZM136.223 33.98C136.223 32.86 136.45 31.88 136.903 31.04C137.357 30.1867 137.977 29.5267 138.763 29.06C139.563 28.5933 140.45 28.36 141.423 28.36C142.383 28.36 143.217 28.5667 143.923 28.98C144.63 29.3933 145.157 29.9133 145.503 30.54V28.54H147.343V39.5H145.503V37.46C145.143 38.1 144.603 38.6333 143.883 39.06C143.177 39.4733 142.35 39.68 141.403 39.68C140.43 39.68 139.55 39.44 138.763 38.96C137.977 38.48 137.357 37.8067 136.903 36.94C136.45 36.0733 136.223 35.0867 136.223 33.98ZM145.503 34C145.503 33.1733 145.337 32.4533 145.003 31.84C144.67 31.2267 144.217 30.76 143.643 30.44C143.083 30.1067 142.463 29.94 141.783 29.94C141.103 29.94 140.483 30.1 139.923 30.42C139.363 30.74 138.917 31.2067 138.583 31.82C138.25 32.4333 138.083 33.1533 138.083 33.98C138.083 34.82 138.25 35.5533 138.583 36.18C138.917 36.7933 139.363 37.2667 139.923 37.6C140.483 37.92 141.103 38.08 141.783 38.08C142.463 38.08 143.083 37.92 143.643 37.6C144.217 37.2667 144.67 36.7933 145.003 36.18C145.337 35.5533 145.503 34.8267 145.503 34ZM152.239 30.32C152.559 29.6933 153.012 29.2067 153.599 28.86C154.199 28.5133 154.926 28.34 155.779 28.34V30.22H155.299C153.259 30.22 152.239 31.3267 152.239 33.54V39.5H150.419V28.54H152.239V30.32ZM167.88 33.6C167.88 33.9467 167.86 34.3133 167.82 34.7H159.06C159.127 35.78 159.493 36.6267 160.16 37.24C160.84 37.84 161.66 38.14 162.62 38.14C163.407 38.14 164.06 37.96 164.58 37.6C165.113 37.2267 165.487 36.7333 165.7 36.12H167.66C167.367 37.1733 166.78 38.0333 165.9 38.7C165.02 39.3533 163.927 39.68 162.62 39.68C161.58 39.68 160.647 39.4467 159.82 38.98C159.007 38.5133 158.367 37.8533 157.9 37C157.433 36.1333 157.2 35.1333 157.2 34C157.2 32.8667 157.427 31.8733 157.88 31.02C158.333 30.1667 158.967 29.5133 159.78 29.06C160.607 28.5933 161.553 28.36 162.62 28.36C163.66 28.36 164.58 28.5867 165.38 29.04C166.18 29.4933 166.793 30.12 167.22 30.92C167.66 31.7067 167.88 32.6 167.88 33.6ZM166 33.22C166 32.5267 165.847 31.9333 165.54 31.44C165.233 30.9333 164.813 30.5533 164.28 30.3C163.76 30.0333 163.18 29.9 162.54 29.9C161.62 29.9 160.833 30.1933 160.18 30.78C159.54 31.3667 159.173 32.18 159.08 33.22H166Z" fill="black"/>
</svg>
