<svg width="393" height="390" viewBox="0 0 393 390" fill="none" xmlns="http://www.w3.org/2000/svg">
<rect width="393" height="390" fill="#F9F1E7"/>
<path d="M97.12 38.8C97.12 36.6027 97.6107 34.64 98.592 32.912C99.5947 31.1627 100.949 29.808 102.656 28.848C104.384 27.8667 106.315 27.376 108.448 27.376C110.944 27.376 113.131 28.016 115.008 29.296C116.885 30.576 118.197 32.3467 118.944 34.608H113.792C113.28 33.5413 112.555 32.7413 111.616 32.208C110.699 31.6747 109.632 31.408 108.416 31.408C107.115 31.408 105.952 31.7173 104.928 32.336C103.925 32.9333 103.136 33.7867 102.56 34.896C102.005 36.0053 101.728 37.3067 101.728 38.8C101.728 40.272 102.005 41.5733 102.56 42.704C103.136 43.8133 103.925 44.6773 104.928 45.296C105.952 45.8933 107.115 46.192 108.416 46.192C109.632 46.192 110.699 45.9253 111.616 45.392C112.555 44.8373 113.28 44.0267 113.792 42.96H118.944C118.197 45.2427 116.885 47.024 115.008 48.304C113.152 49.5627 110.965 50.192 108.448 50.192C106.315 50.192 104.384 49.712 102.656 48.752C100.949 47.7707 99.5947 46.416 98.592 44.688C97.6107 42.96 97.12 40.9973 97.12 38.8ZM121.618 41.072C121.618 39.28 121.97 37.6907 122.674 36.304C123.4 34.9173 124.371 33.8507 125.587 33.104C126.824 32.3573 128.2 31.984 129.715 31.984C131.037 31.984 132.189 32.2507 133.171 32.784C134.173 33.3173 134.973 33.9893 135.571 34.8V32.272H140.083V50H135.571V47.408C134.995 48.24 134.195 48.9333 133.171 49.488C132.168 50.0213 131.005 50.288 129.683 50.288C128.189 50.288 126.824 49.904 125.587 49.136C124.371 48.368 123.4 47.2907 122.674 45.904C121.97 44.496 121.618 42.8853 121.618 41.072ZM135.571 41.136C135.571 40.048 135.357 39.12 134.931 38.352C134.504 37.5627 133.928 36.9653 133.203 36.56C132.477 36.1333 131.699 35.92 130.867 35.92C130.035 35.92 129.267 36.1227 128.562 36.528C127.859 36.9333 127.283 37.5307 126.835 38.32C126.408 39.088 126.195 40.0053 126.195 41.072C126.195 42.1387 126.408 43.0773 126.835 43.888C127.283 44.6773 127.859 45.2853 128.562 45.712C129.288 46.1387 130.056 46.352 130.867 46.352C131.699 46.352 132.477 46.1493 133.203 45.744C133.928 45.3173 134.504 44.72 134.931 43.952C135.357 43.1627 135.571 42.224 135.571 41.136ZM148.938 35.024C149.514 34.0853 150.261 33.3493 151.178 32.816C152.117 32.2827 153.183 32.016 154.378 32.016V36.72H153.194C151.786 36.72 150.719 37.0507 149.994 37.712C149.29 38.3733 148.938 39.5253 148.938 41.168V50H144.458V32.272H148.938V35.024ZM162.612 35.952V44.528C162.612 45.1253 162.75 45.5627 163.028 45.84C163.326 46.096 163.817 46.224 164.5 46.224H166.58V50H163.764C159.988 50 158.1 48.1653 158.1 44.496V35.952H155.988V32.272H158.1V27.888H162.612V32.272H166.58V35.952H162.612ZM192.627 27.664V31.28H186.675V50H182.195V31.28H176.243V27.664H192.627ZM203.768 50.288C202.061 50.288 200.525 49.9147 199.16 49.168C197.794 48.4 196.717 47.3227 195.928 45.936C195.16 44.5493 194.776 42.9493 194.776 41.136C194.776 39.3227 195.17 37.7227 195.96 36.336C196.77 34.9493 197.869 33.8827 199.256 33.136C200.642 32.368 202.189 31.984 203.896 31.984C205.602 31.984 207.149 32.368 208.536 33.136C209.922 33.8827 211.01 34.9493 211.8 36.336C212.61 37.7227 213.016 39.3227 213.016 41.136C213.016 42.9493 212.6 44.5493 211.767 45.936C210.957 47.3227 209.848 48.4 208.44 49.168C207.053 49.9147 205.496 50.288 203.768 50.288ZM203.768 46.384C204.578 46.384 205.336 46.192 206.04 45.808C206.765 45.4027 207.341 44.8053 207.768 44.016C208.194 43.2267 208.408 42.2667 208.408 41.136C208.408 39.4507 207.96 38.16 207.064 37.264C206.189 36.3467 205.112 35.888 203.832 35.888C202.552 35.888 201.474 36.3467 200.6 37.264C199.746 38.16 199.32 39.4507 199.32 41.136C199.32 42.8213 199.736 44.1227 200.568 45.04C201.421 45.936 202.488 46.384 203.768 46.384ZM221.518 35.952V44.528C221.518 45.1253 221.656 45.5627 221.934 45.84C222.232 46.096 222.723 46.224 223.406 46.224H225.486V50H222.67C218.894 50 217.006 48.1653 217.006 44.496V35.952H214.894V32.272H217.006V27.888H221.518V32.272H225.486V35.952H221.518ZM227.556 41.072C227.556 39.28 227.908 37.6907 228.612 36.304C229.337 34.9173 230.308 33.8507 231.524 33.104C232.761 32.3573 234.137 31.984 235.652 31.984C236.975 31.984 238.127 32.2507 239.108 32.784C240.111 33.3173 240.911 33.9893 241.508 34.8V32.272H246.02V50H241.508V47.408C240.932 48.24 240.132 48.9333 239.108 49.488C238.105 50.0213 236.943 50.288 235.62 50.288C234.127 50.288 232.761 49.904 231.524 49.136C230.308 48.368 229.337 47.2907 228.612 45.904C227.908 44.496 227.556 42.8853 227.556 41.072ZM241.508 41.136C241.508 40.048 241.295 39.12 240.868 38.352C240.441 37.5627 239.865 36.9653 239.14 36.56C238.415 36.1333 237.636 35.92 236.804 35.92C235.972 35.92 235.204 36.1227 234.5 36.528C233.796 36.9333 233.22 37.5307 232.772 38.32C232.345 39.088 232.132 40.0053 232.132 41.072C232.132 42.1387 232.345 43.0773 232.772 43.888C233.22 44.6773 233.796 45.2853 234.5 45.712C235.225 46.1387 235.993 46.352 236.804 46.352C237.636 46.352 238.415 46.1493 239.14 45.744C239.865 45.3173 240.441 44.72 240.868 43.952C241.295 43.1627 241.508 42.224 241.508 41.136ZM254.876 26.32V50H250.396V26.32H254.876ZM266.086 50.288C264.635 50.288 263.334 50.032 262.182 49.52C261.03 48.9867 260.112 48.272 259.43 47.376C258.768 46.48 258.406 45.488 258.342 44.4H262.854C262.939 45.0827 263.27 45.648 263.846 46.096C264.443 46.544 265.179 46.768 266.054 46.768C266.907 46.768 267.568 46.5973 268.038 46.256C268.528 45.9147 268.774 45.4773 268.774 44.944C268.774 44.368 268.475 43.9413 267.878 43.664C267.302 43.3653 266.374 43.0453 265.094 42.704C263.771 42.384 262.683 42.0533 261.83 41.712C260.998 41.3707 260.272 40.848 259.654 40.144C259.056 39.44 258.758 38.4907 258.758 37.296C258.758 36.3147 259.035 35.4187 259.59 34.608C260.166 33.7973 260.976 33.1573 262.022 32.688C263.088 32.2187 264.336 31.984 265.766 31.984C267.878 31.984 269.563 32.5173 270.822 33.584C272.08 34.6293 272.774 36.048 272.902 37.84H268.614C268.55 37.136 268.251 36.5813 267.718 36.176C267.206 35.7493 266.512 35.536 265.638 35.536C264.827 35.536 264.198 35.6853 263.75 35.984C263.323 36.2827 263.11 36.6987 263.11 37.232C263.11 37.8293 263.408 38.288 264.006 38.608C264.603 38.9067 265.531 39.216 266.79 39.536C268.07 39.856 269.126 40.1867 269.958 40.528C270.79 40.8693 271.504 41.4027 272.102 42.128C272.72 42.832 273.04 43.7707 273.062 44.944C273.062 45.968 272.774 46.8853 272.198 47.696C271.643 48.5067 270.832 49.1467 269.766 49.616C268.72 50.064 267.494 50.288 266.086 50.288Z" fill="black"/>
<path d="M79.864 142.112C79.1173 142.112 78.4453 141.984 77.848 141.728C77.2507 141.461 76.7813 141.088 76.44 140.608C76.0987 140.128 75.928 139.568 75.928 138.928H77.88C77.9227 139.408 78.1093 139.803 78.44 140.112C78.7813 140.421 79.256 140.576 79.864 140.576C80.4933 140.576 80.984 140.427 81.336 140.128C81.688 139.819 81.864 139.424 81.864 138.944C81.864 138.571 81.752 138.267 81.528 138.032C81.3147 137.797 81.0427 137.616 80.712 137.488C80.392 137.36 79.944 137.221 79.368 137.072C78.6427 136.88 78.0507 136.688 77.592 136.496C77.144 136.293 76.76 135.984 76.44 135.568C76.12 135.152 75.96 134.597 75.96 133.904C75.96 133.264 76.12 132.704 76.44 132.224C76.76 131.744 77.208 131.376 77.784 131.12C78.36 130.864 79.0267 130.736 79.784 130.736C80.8613 130.736 81.7413 131.008 82.424 131.552C83.1173 132.085 83.5013 132.821 83.576 133.76H81.56C81.528 133.355 81.336 133.008 80.984 132.72C80.632 132.432 80.168 132.288 79.592 132.288C79.0693 132.288 78.6427 132.421 78.312 132.688C77.9813 132.955 77.816 133.339 77.816 133.84C77.816 134.181 77.9173 134.464 78.12 134.688C78.3333 134.901 78.6 135.072 78.92 135.2C79.24 135.328 79.6773 135.467 80.232 135.616C80.968 135.819 81.5653 136.021 82.024 136.224C82.4933 136.427 82.888 136.741 83.208 137.168C83.5387 137.584 83.704 138.144 83.704 138.848C83.704 139.413 83.5493 139.947 83.24 140.448C82.9413 140.949 82.4987 141.355 81.912 141.664C81.336 141.963 80.6533 142.112 79.864 142.112ZM93.8403 133.184V142H92.0163V140.96C91.7283 141.323 91.3496 141.611 90.8803 141.824C90.4216 142.027 89.9309 142.128 89.4083 142.128C88.7149 142.128 88.0909 141.984 87.5363 141.696C86.9923 141.408 86.5603 140.981 86.2403 140.416C85.9309 139.851 85.7763 139.168 85.7763 138.368V133.184H87.5843V138.096C87.5843 138.885 87.7816 139.493 88.1763 139.92C88.5709 140.336 89.1096 140.544 89.7923 140.544C90.4749 140.544 91.0136 140.336 91.4083 139.92C91.8136 139.493 92.0163 138.885 92.0163 138.096V133.184H93.8403ZM98.0709 134.496C98.3802 134.069 98.8015 133.723 99.3349 133.456C99.8789 133.179 100.482 133.04 101.143 133.04C101.922 133.04 102.626 133.227 103.255 133.6C103.884 133.973 104.38 134.507 104.743 135.2C105.106 135.883 105.287 136.667 105.287 137.552C105.287 138.437 105.106 139.232 104.743 139.936C104.38 140.629 103.879 141.173 103.239 141.568C102.61 141.952 101.911 142.144 101.143 142.144C100.46 142.144 99.8522 142.011 99.3189 141.744C98.7962 141.477 98.3802 141.136 98.0709 140.72V142H96.2469V130.16H98.0709V134.496ZM103.431 137.552C103.431 136.944 103.303 136.421 103.047 135.984C102.802 135.536 102.471 135.2 102.055 134.976C101.65 134.741 101.212 134.624 100.743 134.624C100.284 134.624 99.8469 134.741 99.4309 134.976C99.0255 135.211 98.6949 135.552 98.4389 136C98.1935 136.448 98.0709 136.976 98.0709 137.584C98.0709 138.192 98.1935 138.725 98.4389 139.184C98.6949 139.632 99.0255 139.973 99.4309 140.208C99.8469 140.443 100.284 140.56 100.743 140.56C101.212 140.56 101.65 140.443 102.055 140.208C102.471 139.963 102.802 139.611 103.047 139.152C103.303 138.693 103.431 138.16 103.431 137.552ZM109.219 134.672V139.552C109.219 139.883 109.293 140.123 109.443 140.272C109.603 140.411 109.869 140.48 110.243 140.48H111.363V142H109.923C109.101 142 108.472 141.808 108.035 141.424C107.597 141.04 107.379 140.416 107.379 139.552V134.672H106.339V133.184H107.379V130.992H109.219V133.184H111.363V134.672H109.219ZM116.868 142.144C116.036 142.144 115.284 141.957 114.612 141.584C113.94 141.2 113.412 140.667 113.028 139.984C112.644 139.291 112.452 138.491 112.452 137.584C112.452 136.688 112.649 135.893 113.044 135.2C113.438 134.507 113.977 133.973 114.66 133.6C115.342 133.227 116.105 133.04 116.948 133.04C117.79 133.04 118.553 133.227 119.236 133.6C119.918 133.973 120.457 134.507 120.852 135.2C121.246 135.893 121.444 136.688 121.444 137.584C121.444 138.48 121.241 139.275 120.836 139.968C120.43 140.661 119.876 141.2 119.172 141.584C118.478 141.957 117.71 142.144 116.868 142.144ZM116.868 140.56C117.337 140.56 117.774 140.448 118.18 140.224C118.596 140 118.932 139.664 119.188 139.216C119.444 138.768 119.572 138.224 119.572 137.584C119.572 136.944 119.449 136.405 119.204 135.968C118.958 135.52 118.633 135.184 118.228 134.96C117.822 134.736 117.385 134.624 116.916 134.624C116.446 134.624 116.009 134.736 115.604 134.96C115.209 135.184 114.894 135.52 114.66 135.968C114.425 136.405 114.308 136.944 114.308 137.584C114.308 138.533 114.548 139.269 115.028 139.792C115.518 140.304 116.132 140.56 116.868 140.56ZM125.375 134.672V139.552C125.375 139.883 125.45 140.123 125.599 140.272C125.759 140.411 126.026 140.48 126.399 140.48H127.519V142H126.079C125.258 142 124.628 141.808 124.191 141.424C123.754 141.04 123.535 140.416 123.535 139.552V134.672H122.495V133.184H123.535V130.992H125.375V133.184H127.519V134.672H125.375ZM128.592 137.552C128.592 136.667 128.773 135.883 129.136 135.2C129.509 134.517 130.011 133.989 130.64 133.616C131.28 133.232 131.984 133.04 132.752 133.04C133.445 133.04 134.048 133.179 134.56 133.456C135.083 133.723 135.499 134.059 135.808 134.464V133.184H137.648V142H135.808V140.688C135.499 141.104 135.077 141.451 134.544 141.728C134.011 142.005 133.403 142.144 132.72 142.144C131.963 142.144 131.269 141.952 130.64 141.568C130.011 141.173 129.509 140.629 129.136 139.936C128.773 139.232 128.592 138.437 128.592 137.552ZM135.808 137.584C135.808 136.976 135.68 136.448 135.424 136C135.179 135.552 134.853 135.211 134.448 134.976C134.043 134.741 133.605 134.624 133.136 134.624C132.667 134.624 132.229 134.741 131.824 134.976C131.419 135.2 131.088 135.536 130.832 135.984C130.587 136.421 130.464 136.944 130.464 137.552C130.464 138.16 130.587 138.693 130.832 139.152C131.088 139.611 131.419 139.963 131.824 140.208C132.24 140.443 132.677 140.56 133.136 140.56C133.605 140.56 134.043 140.443 134.448 140.208C134.853 139.973 135.179 139.632 135.424 139.184C135.68 138.725 135.808 138.192 135.808 137.584ZM141.868 130.16V142H140.044V130.16H141.868Z" fill="black"/>
<path d="M83.384 185.88V187.368H80.424V197H78.6V187.368H75.624V185.88H83.384ZM89.0553 197.144C88.2233 197.144 87.4713 196.957 86.7993 196.584C86.1273 196.2 85.5993 195.667 85.2153 194.984C84.8313 194.291 84.6393 193.491 84.6393 192.584C84.6393 191.688 84.8366 190.893 85.2313 190.2C85.6259 189.507 86.1646 188.973 86.8473 188.6C87.5299 188.227 88.2926 188.04 89.1353 188.04C89.9779 188.04 90.7406 188.227 91.4233 188.6C92.1059 188.973 92.6446 189.507 93.0393 190.2C93.4339 190.893 93.6313 191.688 93.6313 192.584C93.6313 193.48 93.4286 194.275 93.0233 194.968C92.6179 195.661 92.0633 196.2 91.3593 196.584C90.6659 196.957 89.8979 197.144 89.0553 197.144ZM89.0553 195.56C89.5246 195.56 89.9619 195.448 90.3673 195.224C90.7833 195 91.1193 194.664 91.3753 194.216C91.6313 193.768 91.7593 193.224 91.7593 192.584C91.7593 191.944 91.6366 191.405 91.3913 190.968C91.1459 190.52 90.8206 190.184 90.4153 189.96C90.0099 189.736 89.5726 189.624 89.1033 189.624C88.6339 189.624 88.1966 189.736 87.7913 189.96C87.3966 190.184 87.0819 190.52 86.8473 190.968C86.6126 191.405 86.4953 191.944 86.4953 192.584C86.4953 193.533 86.7353 194.269 87.2153 194.792C87.7059 195.304 88.3193 195.56 89.0553 195.56ZM97.5624 189.672V194.552C97.5624 194.883 97.637 195.123 97.7864 195.272C97.9464 195.411 98.213 195.48 98.5864 195.48H99.7064V197H98.2664C97.445 197 96.8157 196.808 96.3784 196.424C95.941 196.04 95.7224 195.416 95.7224 194.552V189.672H94.6824V188.184H95.7224V185.992H97.5624V188.184H99.7064V189.672H97.5624ZM100.78 192.552C100.78 191.667 100.961 190.883 101.324 190.2C101.697 189.517 102.198 188.989 102.828 188.616C103.468 188.232 104.172 188.04 104.94 188.04C105.633 188.04 106.236 188.179 106.748 188.456C107.27 188.723 107.686 189.059 107.996 189.464V188.184H109.836V197H107.996V195.688C107.686 196.104 107.265 196.451 106.732 196.728C106.198 197.005 105.59 197.144 104.908 197.144C104.15 197.144 103.457 196.952 102.828 196.568C102.198 196.173 101.697 195.629 101.324 194.936C100.961 194.232 100.78 193.437 100.78 192.552ZM107.996 192.584C107.996 191.976 107.868 191.448 107.612 191C107.366 190.552 107.041 190.211 106.636 189.976C106.23 189.741 105.793 189.624 105.324 189.624C104.854 189.624 104.417 189.741 104.012 189.976C103.606 190.2 103.276 190.536 103.02 190.984C102.774 191.421 102.652 191.944 102.652 192.552C102.652 193.16 102.774 193.693 103.02 194.152C103.276 194.611 103.606 194.963 104.012 195.208C104.428 195.443 104.865 195.56 105.324 195.56C105.793 195.56 106.23 195.443 106.636 195.208C107.041 194.973 107.366 194.632 107.612 194.184C107.868 193.725 107.996 193.192 107.996 192.584ZM114.055 185.16V197H112.231V185.16H114.055Z" fill="black"/>
<path d="M213.104 142L210.448 137.44H208.688V142H207.232V130.848H210.832C211.675 130.848 212.384 130.992 212.96 131.28C213.547 131.568 213.984 131.957 214.272 132.448C214.56 132.939 214.704 133.499 214.704 134.128C214.704 134.896 214.48 135.573 214.032 136.16C213.595 136.747 212.933 137.136 212.048 137.328L214.848 142H213.104ZM208.688 136.272H210.832C211.621 136.272 212.213 136.08 212.608 135.696C213.003 135.301 213.2 134.779 213.2 134.128C213.2 133.467 213.003 132.955 212.608 132.592C212.224 132.229 211.632 132.048 210.832 132.048H208.688V136.272ZM220.07 142.144C219.398 142.144 218.796 142.032 218.262 141.808C217.729 141.573 217.308 141.253 216.998 140.848C216.689 140.432 216.518 139.957 216.486 139.424H217.99C218.033 139.861 218.236 140.219 218.598 140.496C218.972 140.773 219.457 140.912 220.054 140.912C220.609 140.912 221.046 140.789 221.366 140.544C221.686 140.299 221.846 139.989 221.846 139.616C221.846 139.232 221.676 138.949 221.334 138.768C220.993 138.576 220.465 138.389 219.75 138.208C219.1 138.037 218.566 137.867 218.15 137.696C217.745 137.515 217.393 137.253 217.094 136.912C216.806 136.56 216.662 136.101 216.662 135.536C216.662 135.088 216.796 134.677 217.062 134.304C217.329 133.931 217.708 133.637 218.198 133.424C218.689 133.2 219.249 133.088 219.878 133.088C220.849 133.088 221.633 133.333 222.23 133.824C222.828 134.315 223.148 134.987 223.19 135.84H221.734C221.702 135.381 221.516 135.013 221.174 134.736C220.844 134.459 220.396 134.32 219.83 134.32C219.308 134.32 218.892 134.432 218.582 134.656C218.273 134.88 218.118 135.173 218.118 135.536C218.118 135.824 218.209 136.064 218.39 136.256C218.582 136.437 218.817 136.587 219.094 136.704C219.382 136.811 219.777 136.933 220.278 137.072C220.908 137.243 221.42 137.413 221.814 137.584C222.209 137.744 222.545 137.989 222.822 138.32C223.11 138.651 223.26 139.083 223.27 139.616C223.27 140.096 223.137 140.528 222.87 140.912C222.604 141.296 222.225 141.6 221.734 141.824C221.254 142.037 220.7 142.144 220.07 142.144ZM225.79 142.096C225.512 142.096 225.278 142 225.086 141.808C224.894 141.616 224.798 141.381 224.798 141.104C224.798 140.827 224.894 140.592 225.086 140.4C225.278 140.208 225.512 140.112 225.79 140.112C226.056 140.112 226.28 140.208 226.462 140.4C226.654 140.592 226.75 140.827 226.75 141.104C226.75 141.381 226.654 141.616 226.462 141.808C226.28 142 226.056 142.096 225.79 142.096ZM232.535 140.832C233.889 139.744 234.951 138.853 235.719 138.16C236.487 137.456 237.132 136.725 237.655 135.968C238.188 135.2 238.455 134.448 238.455 133.712C238.455 133.019 238.284 132.475 237.943 132.08C237.612 131.675 237.073 131.472 236.327 131.472C235.601 131.472 235.036 131.701 234.631 132.16C234.236 132.608 234.023 133.211 233.991 133.968H232.583C232.625 132.773 232.988 131.851 233.671 131.2C234.353 130.549 235.233 130.224 236.311 130.224C237.409 130.224 238.279 130.528 238.919 131.136C239.569 131.744 239.895 132.581 239.895 133.648C239.895 134.533 239.628 135.397 239.095 136.24C238.572 137.072 237.975 137.808 237.303 138.448C236.631 139.077 235.772 139.813 234.727 140.656H240.231V141.872H232.535V140.832ZM249.29 131.696H243.674V135.344C243.919 135.003 244.282 134.725 244.762 134.512C245.242 134.288 245.759 134.176 246.314 134.176C247.199 134.176 247.919 134.363 248.474 134.736C249.029 135.099 249.423 135.573 249.658 136.16C249.903 136.736 250.026 137.349 250.026 138C250.026 138.768 249.882 139.456 249.594 140.064C249.306 140.672 248.863 141.152 248.266 141.504C247.679 141.856 246.949 142.032 246.074 142.032C244.954 142.032 244.047 141.744 243.354 141.168C242.661 140.592 242.239 139.824 242.09 138.864H243.514C243.653 139.472 243.946 139.947 244.394 140.288C244.842 140.629 245.407 140.8 246.09 140.8C246.933 140.8 247.567 140.549 247.994 140.048C248.421 139.536 248.634 138.864 248.634 138.032C248.634 137.2 248.421 136.56 247.994 136.112C247.567 135.653 246.938 135.424 246.106 135.424C245.541 135.424 245.045 135.563 244.618 135.84C244.202 136.107 243.898 136.475 243.706 136.944H242.33V130.416H249.29V131.696ZM251.961 136.096C251.961 134.261 252.259 132.832 252.857 131.808C253.454 130.773 254.499 130.256 255.993 130.256C257.475 130.256 258.515 130.773 259.113 131.808C259.71 132.832 260.009 134.261 260.009 136.096C260.009 137.963 259.71 139.413 259.113 140.448C258.515 141.483 257.475 142 255.993 142C254.499 142 253.454 141.483 252.857 140.448C252.259 139.413 251.961 137.963 251.961 136.096ZM258.569 136.096C258.569 135.168 258.505 134.384 258.377 133.744C258.259 133.093 258.009 132.571 257.625 132.176C257.251 131.781 256.707 131.584 255.993 131.584C255.267 131.584 254.713 131.781 254.329 132.176C253.955 132.571 253.705 133.093 253.577 133.744C253.459 134.384 253.401 135.168 253.401 136.096C253.401 137.056 253.459 137.861 253.577 138.512C253.705 139.163 253.955 139.685 254.329 140.08C254.713 140.475 255.267 140.672 255.993 140.672C256.707 140.672 257.251 140.475 257.625 140.08C258.009 139.685 258.259 139.163 258.377 138.512C258.505 137.861 258.569 137.056 258.569 136.096ZM263.752 139.984L261.96 144.288H260.984L262.152 139.984H263.752ZM265.18 136.096C265.18 134.261 265.478 132.832 266.076 131.808C266.673 130.773 267.718 130.256 269.212 130.256C270.694 130.256 271.734 130.773 272.332 131.808C272.929 132.832 273.227 134.261 273.227 136.096C273.227 137.963 272.929 139.413 272.332 140.448C271.734 141.483 270.694 142 269.212 142C267.718 142 266.673 141.483 266.076 140.448C265.478 139.413 265.18 137.963 265.18 136.096ZM271.788 136.096C271.788 135.168 271.724 134.384 271.596 133.744C271.478 133.093 271.228 132.571 270.844 132.176C270.47 131.781 269.926 131.584 269.212 131.584C268.486 131.584 267.932 131.781 267.548 132.176C267.174 132.571 266.924 133.093 266.796 133.744C266.678 134.384 266.62 135.168 266.62 136.096C266.62 137.056 266.678 137.861 266.796 138.512C266.924 139.163 267.174 139.685 267.548 140.08C267.932 140.475 268.486 140.672 269.212 140.672C269.926 140.672 270.47 140.475 270.844 140.08C271.228 139.685 271.478 139.163 271.596 138.512C271.724 137.861 271.788 137.056 271.788 136.096ZM275.226 136.096C275.226 134.261 275.525 132.832 276.122 131.808C276.72 130.773 277.765 130.256 279.258 130.256C280.741 130.256 281.781 130.773 282.378 131.808C282.976 132.832 283.274 134.261 283.274 136.096C283.274 137.963 282.976 139.413 282.378 140.448C281.781 141.483 280.741 142 279.258 142C277.765 142 276.72 141.483 276.122 140.448C275.525 139.413 275.226 137.963 275.226 136.096ZM281.834 136.096C281.834 135.168 281.77 134.384 281.642 133.744C281.525 133.093 281.274 132.571 280.89 132.176C280.517 131.781 279.973 131.584 279.258 131.584C278.533 131.584 277.978 131.781 277.594 132.176C277.221 132.571 276.97 133.093 276.842 133.744C276.725 134.384 276.666 135.168 276.666 136.096C276.666 137.056 276.725 137.861 276.842 138.512C276.97 139.163 277.221 139.685 277.594 140.08C277.978 140.475 278.533 140.672 279.258 140.672C279.973 140.672 280.517 140.475 280.89 140.08C281.274 139.685 281.525 139.163 281.642 138.512C281.77 137.861 281.834 137.056 281.834 136.096ZM285.273 136.096C285.273 134.261 285.572 132.832 286.169 131.808C286.767 130.773 287.812 130.256 289.305 130.256C290.788 130.256 291.828 130.773 292.425 131.808C293.023 132.832 293.321 134.261 293.321 136.096C293.321 137.963 293.023 139.413 292.425 140.448C291.828 141.483 290.788 142 289.305 142C287.812 142 286.767 141.483 286.169 140.448C285.572 139.413 285.273 137.963 285.273 136.096ZM291.881 136.096C291.881 135.168 291.817 134.384 291.689 133.744C291.572 133.093 291.321 132.571 290.937 132.176C290.564 131.781 290.02 131.584 289.305 131.584C288.58 131.584 288.025 131.781 287.641 132.176C287.268 132.571 287.017 133.093 286.889 133.744C286.772 134.384 286.713 135.168 286.713 136.096C286.713 137.056 286.772 137.861 286.889 138.512C287.017 139.163 287.268 139.685 287.641 140.08C288.025 140.475 288.58 140.672 289.305 140.672C290.02 140.672 290.564 140.475 290.937 140.08C291.321 139.685 291.572 139.163 291.689 138.512C291.817 137.861 291.881 137.056 291.881 136.096ZM296.024 142.096C295.747 142.096 295.512 142 295.32 141.808C295.128 141.616 295.032 141.381 295.032 141.104C295.032 140.827 295.128 140.592 295.32 140.4C295.512 140.208 295.747 140.112 296.024 140.112C296.291 140.112 296.515 140.208 296.696 140.4C296.888 140.592 296.984 140.827 296.984 141.104C296.984 141.381 296.888 141.616 296.696 141.808C296.515 142 296.291 142.096 296.024 142.096ZM298.68 136.096C298.68 134.261 298.978 132.832 299.576 131.808C300.173 130.773 301.218 130.256 302.712 130.256C304.194 130.256 305.234 130.773 305.832 131.808C306.429 132.832 306.727 134.261 306.727 136.096C306.727 137.963 306.429 139.413 305.832 140.448C305.234 141.483 304.194 142 302.712 142C301.218 142 300.173 141.483 299.576 140.448C298.978 139.413 298.68 137.963 298.68 136.096ZM305.288 136.096C305.288 135.168 305.224 134.384 305.096 133.744C304.978 133.093 304.728 132.571 304.344 132.176C303.97 131.781 303.426 131.584 302.712 131.584C301.986 131.584 301.432 131.781 301.048 132.176C300.674 132.571 300.424 133.093 300.296 133.744C300.178 134.384 300.12 135.168 300.12 136.096C300.12 137.056 300.178 137.861 300.296 138.512C300.424 139.163 300.674 139.685 301.048 140.08C301.432 140.475 301.986 140.672 302.712 140.672C303.426 140.672 303.97 140.475 304.344 140.08C304.728 139.685 304.978 139.163 305.096 138.512C305.224 137.861 305.288 137.056 305.288 136.096ZM308.726 136.096C308.726 134.261 309.025 132.832 309.622 131.808C310.22 130.773 311.265 130.256 312.758 130.256C314.241 130.256 315.281 130.773 315.878 131.808C316.476 132.832 316.774 134.261 316.774 136.096C316.774 137.963 316.476 139.413 315.878 140.448C315.281 141.483 314.241 142 312.758 142C311.265 142 310.22 141.483 309.622 140.448C309.025 139.413 308.726 137.963 308.726 136.096ZM315.334 136.096C315.334 135.168 315.27 134.384 315.142 133.744C315.025 133.093 314.774 132.571 314.39 132.176C314.017 131.781 313.473 131.584 312.758 131.584C312.033 131.584 311.478 131.781 311.094 132.176C310.721 132.571 310.47 133.093 310.342 133.744C310.225 134.384 310.166 135.168 310.166 136.096C310.166 137.056 310.225 137.861 310.342 138.512C310.47 139.163 310.721 139.685 311.094 140.08C311.478 140.475 312.033 140.672 312.758 140.672C313.473 140.672 314.017 140.475 314.39 140.08C314.774 139.685 315.025 139.163 315.142 138.512C315.27 137.861 315.334 137.056 315.334 136.096Z" fill="#9F9F9F"/>
<path d="M182.72 201L179.52 195.44H177.78V201H175.5V187.1H180.3C181.367 187.1 182.267 187.287 183 187.66C183.747 188.033 184.3 188.533 184.66 189.16C185.033 189.787 185.22 190.487 185.22 191.26C185.22 192.167 184.953 192.993 184.42 193.74C183.9 194.473 183.093 194.973 182 195.24L185.44 201H182.72ZM177.78 193.62H180.3C181.153 193.62 181.793 193.407 182.22 192.98C182.66 192.553 182.88 191.98 182.88 191.26C182.88 190.54 182.667 189.98 182.24 189.58C181.813 189.167 181.167 188.96 180.3 188.96H177.78V193.62ZM192.137 201.18C191.27 201.18 190.49 201.027 189.797 200.72C189.117 200.4 188.577 199.973 188.177 199.44C187.777 198.893 187.563 198.287 187.537 197.62H189.897C189.937 198.087 190.157 198.48 190.557 198.8C190.97 199.107 191.483 199.26 192.097 199.26C192.737 199.26 193.23 199.14 193.577 198.9C193.937 198.647 194.117 198.327 194.117 197.94C194.117 197.527 193.917 197.22 193.517 197.02C193.13 196.82 192.51 196.6 191.657 196.36C190.83 196.133 190.157 195.913 189.637 195.7C189.117 195.487 188.663 195.16 188.277 194.72C187.903 194.28 187.717 193.7 187.717 192.98C187.717 192.393 187.89 191.86 188.237 191.38C188.583 190.887 189.077 190.5 189.717 190.22C190.37 189.94 191.117 189.8 191.957 189.8C193.21 189.8 194.217 190.12 194.977 190.76C195.75 191.387 196.163 192.247 196.217 193.34H193.937C193.897 192.847 193.697 192.453 193.337 192.16C192.977 191.867 192.49 191.72 191.877 191.72C191.277 191.72 190.817 191.833 190.497 192.06C190.177 192.287 190.017 192.587 190.017 192.96C190.017 193.253 190.123 193.5 190.337 193.7C190.55 193.9 190.81 194.06 191.117 194.18C191.423 194.287 191.877 194.427 192.477 194.6C193.277 194.813 193.93 195.033 194.437 195.26C194.957 195.473 195.403 195.793 195.777 196.22C196.15 196.647 196.343 197.213 196.357 197.92C196.357 198.547 196.183 199.107 195.837 199.6C195.49 200.093 194.997 200.48 194.357 200.76C193.73 201.04 192.99 201.18 192.137 201.18ZM199.74 201.14C199.327 201.14 198.98 201 198.7 200.72C198.42 200.44 198.28 200.093 198.28 199.68C198.28 199.267 198.42 198.92 198.7 198.64C198.98 198.36 199.327 198.22 199.74 198.22C200.14 198.22 200.48 198.36 200.76 198.64C201.04 198.92 201.18 199.267 201.18 199.68C201.18 200.093 201.04 200.44 200.76 200.72C200.48 201 200.14 201.14 199.74 201.14ZM209.8 197.9C211.08 196.793 212.087 195.887 212.82 195.18C213.567 194.46 214.187 193.713 214.68 192.94C215.173 192.167 215.42 191.393 215.42 190.62C215.42 189.82 215.227 189.193 214.84 188.74C214.467 188.287 213.873 188.06 213.06 188.06C212.273 188.06 211.66 188.313 211.22 188.82C210.793 189.313 210.567 189.98 210.54 190.82H208.34C208.38 189.3 208.833 188.14 209.7 187.34C210.58 186.527 211.693 186.12 213.04 186.12C214.493 186.12 215.627 186.52 216.44 187.32C217.267 188.12 217.68 189.187 217.68 190.52C217.68 191.48 217.433 192.407 216.94 193.3C216.46 194.18 215.88 194.973 215.2 195.68C214.533 196.373 213.68 197.18 212.64 198.1L211.74 198.9H218.08V200.8H208.36V199.14L209.8 197.9ZM229.483 188.38H222.783V192.36C223.063 191.987 223.476 191.673 224.023 191.42C224.583 191.167 225.176 191.04 225.803 191.04C226.923 191.04 227.829 191.28 228.523 191.76C229.229 192.24 229.729 192.847 230.023 193.58C230.329 194.313 230.483 195.087 230.483 195.9C230.483 196.887 230.289 197.767 229.903 198.54C229.529 199.3 228.963 199.9 228.203 200.34C227.456 200.78 226.536 201 225.443 201C223.989 201 222.823 200.64 221.943 199.92C221.063 199.2 220.536 198.247 220.363 197.06H222.583C222.729 197.687 223.056 198.187 223.563 198.56C224.069 198.92 224.703 199.1 225.463 199.1C226.409 199.1 227.116 198.813 227.583 198.24C228.063 197.667 228.303 196.907 228.303 195.96C228.303 195 228.063 194.267 227.583 193.76C227.103 193.24 226.396 192.98 225.463 192.98C224.809 192.98 224.256 193.147 223.803 193.48C223.363 193.8 223.043 194.24 222.843 194.8H220.683V186.38H229.483V188.38ZM232.856 193.52C232.856 191.213 233.243 189.413 234.016 188.12C234.803 186.813 236.15 186.16 238.056 186.16C239.963 186.16 241.303 186.813 242.076 188.12C242.863 189.413 243.256 191.213 243.256 193.52C243.256 195.853 242.863 197.68 242.076 199C241.303 200.307 239.963 200.96 238.056 200.96C236.15 200.96 234.803 200.307 234.016 199C233.243 197.68 232.856 195.853 232.856 193.52ZM241.016 193.52C241.016 192.44 240.943 191.527 240.796 190.78C240.663 190.033 240.383 189.427 239.956 188.96C239.53 188.48 238.896 188.24 238.056 188.24C237.216 188.24 236.583 188.48 236.156 188.96C235.73 189.427 235.443 190.033 235.296 190.78C235.163 191.527 235.096 192.44 235.096 193.52C235.096 194.64 235.163 195.58 235.296 196.34C235.43 197.1 235.71 197.713 236.136 198.18C236.576 198.647 237.216 198.88 238.056 198.88C238.896 198.88 239.53 198.647 239.956 198.18C240.396 197.713 240.683 197.1 240.816 196.34C240.95 195.58 241.016 194.64 241.016 193.52ZM248.469 198.26L246.049 203.78H244.569L245.989 198.26H248.469ZM250.161 193.52C250.161 191.213 250.548 189.413 251.321 188.12C252.108 186.813 253.454 186.16 255.361 186.16C257.268 186.16 258.608 186.813 259.381 188.12C260.168 189.413 260.561 191.213 260.561 193.52C260.561 195.853 260.168 197.68 259.381 199C258.608 200.307 257.268 200.96 255.361 200.96C253.454 200.96 252.108 200.307 251.321 199C250.548 197.68 250.161 195.853 250.161 193.52ZM258.321 193.52C258.321 192.44 258.248 191.527 258.101 190.78C257.968 190.033 257.688 189.427 257.261 188.96C256.834 188.48 256.201 188.24 255.361 188.24C254.521 188.24 253.888 188.48 253.461 188.96C253.034 189.427 252.748 190.033 252.601 190.78C252.468 191.527 252.401 192.44 252.401 193.52C252.401 194.64 252.468 195.58 252.601 196.34C252.734 197.1 253.014 197.713 253.441 198.18C253.881 198.647 254.521 198.88 255.361 198.88C256.201 198.88 256.834 198.647 257.261 198.18C257.701 197.713 257.988 197.1 258.121 196.34C258.254 195.58 258.321 194.64 258.321 193.52ZM262.973 193.52C262.973 191.213 263.36 189.413 264.133 188.12C264.92 186.813 266.267 186.16 268.173 186.16C270.08 186.16 271.42 186.813 272.193 188.12C272.98 189.413 273.373 191.213 273.373 193.52C273.373 195.853 272.98 197.68 272.193 199C271.42 200.307 270.08 200.96 268.173 200.96C266.267 200.96 264.92 200.307 264.133 199C263.36 197.68 262.973 195.853 262.973 193.52ZM271.133 193.52C271.133 192.44 271.06 191.527 270.913 190.78C270.78 190.033 270.5 189.427 270.073 188.96C269.647 188.48 269.013 188.24 268.173 188.24C267.333 188.24 266.7 188.48 266.273 188.96C265.847 189.427 265.56 190.033 265.413 190.78C265.28 191.527 265.213 192.44 265.213 193.52C265.213 194.64 265.28 195.58 265.413 196.34C265.547 197.1 265.827 197.713 266.253 198.18C266.693 198.647 267.333 198.88 268.173 198.88C269.013 198.88 269.647 198.647 270.073 198.18C270.513 197.713 270.8 197.1 270.933 196.34C271.067 195.58 271.133 194.64 271.133 193.52ZM275.786 193.52C275.786 191.213 276.173 189.413 276.946 188.12C277.733 186.813 279.079 186.16 280.986 186.16C282.893 186.16 284.233 186.813 285.006 188.12C285.793 189.413 286.186 191.213 286.186 193.52C286.186 195.853 285.793 197.68 285.006 199C284.233 200.307 282.893 200.96 280.986 200.96C279.079 200.96 277.733 200.307 276.946 199C276.173 197.68 275.786 195.853 275.786 193.52ZM283.946 193.52C283.946 192.44 283.873 191.527 283.726 190.78C283.593 190.033 283.313 189.427 282.886 188.96C282.459 188.48 281.826 188.24 280.986 188.24C280.146 188.24 279.513 188.48 279.086 188.96C278.659 189.427 278.373 190.033 278.226 190.78C278.093 191.527 278.026 192.44 278.026 193.52C278.026 194.64 278.093 195.58 278.226 196.34C278.359 197.1 278.639 197.713 279.066 198.18C279.506 198.647 280.146 198.88 280.986 198.88C281.826 198.88 282.459 198.647 282.886 198.18C283.326 197.713 283.613 197.1 283.746 196.34C283.879 195.58 283.946 194.64 283.946 193.52ZM289.818 201.14C289.405 201.14 289.058 201 288.778 200.72C288.498 200.44 288.358 200.093 288.358 199.68C288.358 199.267 288.498 198.92 288.778 198.64C289.058 198.36 289.405 198.22 289.818 198.22C290.218 198.22 290.558 198.36 290.838 198.64C291.118 198.92 291.258 199.267 291.258 199.68C291.258 200.093 291.118 200.44 290.838 200.72C290.558 201 290.218 201.14 289.818 201.14ZM293.423 193.52C293.423 191.213 293.809 189.413 294.583 188.12C295.369 186.813 296.716 186.16 298.623 186.16C300.529 186.16 301.869 186.813 302.643 188.12C303.429 189.413 303.823 191.213 303.823 193.52C303.823 195.853 303.429 197.68 302.643 199C301.869 200.307 300.529 200.96 298.623 200.96C296.716 200.96 295.369 200.307 294.583 199C293.809 197.68 293.423 195.853 293.423 193.52ZM301.583 193.52C301.583 192.44 301.509 191.527 301.363 190.78C301.229 190.033 300.949 189.427 300.523 188.96C300.096 188.48 299.463 188.24 298.623 188.24C297.783 188.24 297.149 188.48 296.723 188.96C296.296 189.427 296.009 190.033 295.863 190.78C295.729 191.527 295.663 192.44 295.663 193.52C295.663 194.64 295.729 195.58 295.863 196.34C295.996 197.1 296.276 197.713 296.703 198.18C297.143 198.647 297.783 198.88 298.623 198.88C299.463 198.88 300.096 198.647 300.523 198.18C300.963 197.713 301.249 197.1 301.383 196.34C301.516 195.58 301.583 194.64 301.583 193.52ZM306.235 193.52C306.235 191.213 306.622 189.413 307.395 188.12C308.182 186.813 309.528 186.16 311.435 186.16C313.342 186.16 314.682 186.813 315.455 188.12C316.242 189.413 316.635 191.213 316.635 193.52C316.635 195.853 316.242 197.68 315.455 199C314.682 200.307 313.342 200.96 311.435 200.96C309.528 200.96 308.182 200.307 307.395 199C306.622 197.68 306.235 195.853 306.235 193.52ZM314.395 193.52C314.395 192.44 314.322 191.527 314.175 190.78C314.042 190.033 313.762 189.427 313.335 188.96C312.908 188.48 312.275 188.24 311.435 188.24C310.595 188.24 309.962 188.48 309.535 188.96C309.108 189.427 308.822 190.033 308.675 190.78C308.542 191.527 308.475 192.44 308.475 193.52C308.475 194.64 308.542 195.58 308.675 196.34C308.808 197.1 309.088 197.713 309.515 198.18C309.955 198.647 310.595 198.88 311.435 198.88C312.275 198.88 312.908 198.647 313.335 198.18C313.775 197.713 314.062 197.1 314.195 196.34C314.328 195.58 314.395 194.64 314.395 193.52Z" fill="#B88E2F"/>
<rect x="86.5" y="251.5" width="221" height="57.9544" rx="14.5" stroke="black"/>
<path d="M145.86 280.02C145.86 278.66 146.167 277.44 146.78 276.36C147.393 275.267 148.227 274.413 149.28 273.8C150.347 273.187 151.527 272.88 152.82 272.88C154.34 272.88 155.667 273.247 156.8 273.98C157.933 274.713 158.76 275.753 159.28 277.1H157.1C156.713 276.26 156.153 275.613 155.42 275.16C154.7 274.707 153.833 274.48 152.82 274.48C151.847 274.48 150.973 274.707 150.2 275.16C149.427 275.613 148.82 276.26 148.38 277.1C147.94 277.927 147.72 278.9 147.72 280.02C147.72 281.127 147.94 282.1 148.38 282.94C148.82 283.767 149.427 284.407 150.2 284.86C150.973 285.313 151.847 285.54 152.82 285.54C153.833 285.54 154.7 285.32 155.42 284.88C156.153 284.427 156.713 283.78 157.1 282.94H159.28C158.76 284.273 157.933 285.307 156.8 286.04C155.667 286.76 154.34 287.12 152.82 287.12C151.527 287.12 150.347 286.82 149.28 286.22C148.227 285.607 147.393 284.76 146.78 283.68C146.167 282.6 145.86 281.38 145.86 280.02ZM167.429 275.84C168.256 275.84 169.003 276.02 169.669 276.38C170.336 276.727 170.856 277.253 171.229 277.96C171.616 278.667 171.809 279.527 171.809 280.54V287H170.009V280.8C170.009 279.707 169.736 278.873 169.189 278.3C168.643 277.713 167.896 277.42 166.949 277.42C165.989 277.42 165.223 277.72 164.649 278.32C164.089 278.92 163.809 279.793 163.809 280.94V287H161.989V272.2H163.809V277.6C164.169 277.04 164.663 276.607 165.289 276.3C165.929 275.993 166.643 275.84 167.429 275.84ZM184.782 281.1C184.782 281.447 184.762 281.813 184.722 282.2H175.962C176.029 283.28 176.396 284.127 177.062 284.74C177.742 285.34 178.562 285.64 179.522 285.64C180.309 285.64 180.962 285.46 181.482 285.1C182.016 284.727 182.389 284.233 182.602 283.62H184.562C184.269 284.673 183.682 285.533 182.802 286.2C181.922 286.853 180.829 287.18 179.522 287.18C178.482 287.18 177.549 286.947 176.722 286.48C175.909 286.013 175.269 285.353 174.802 284.5C174.336 283.633 174.102 282.633 174.102 281.5C174.102 280.367 174.329 279.373 174.782 278.52C175.236 277.667 175.869 277.013 176.682 276.56C177.509 276.093 178.456 275.86 179.522 275.86C180.562 275.86 181.482 276.087 182.282 276.54C183.082 276.993 183.696 277.62 184.122 278.42C184.562 279.207 184.782 280.1 184.782 281.1ZM182.902 280.72C182.902 280.027 182.749 279.433 182.442 278.94C182.136 278.433 181.716 278.053 181.182 277.8C180.662 277.533 180.082 277.4 179.442 277.4C178.522 277.4 177.736 277.693 177.082 278.28C176.442 278.867 176.076 279.68 175.982 280.72H182.902ZM186.505 281.5C186.505 280.367 186.731 279.38 187.185 278.54C187.638 277.687 188.265 277.027 189.065 276.56C189.878 276.093 190.805 275.86 191.845 275.86C193.191 275.86 194.298 276.187 195.165 276.84C196.045 277.493 196.625 278.4 196.905 279.56H194.945C194.758 278.893 194.391 278.367 193.845 277.98C193.311 277.593 192.645 277.4 191.845 277.4C190.805 277.4 189.965 277.76 189.325 278.48C188.685 279.187 188.365 280.193 188.365 281.5C188.365 282.82 188.685 283.84 189.325 284.56C189.965 285.28 190.805 285.64 191.845 285.64C192.645 285.64 193.311 285.453 193.845 285.08C194.378 284.707 194.745 284.173 194.945 283.48H196.905C196.611 284.6 196.025 285.5 195.145 286.18C194.265 286.847 193.165 287.18 191.845 287.18C190.805 287.18 189.878 286.947 189.065 286.48C188.265 286.013 187.638 285.353 187.185 284.5C186.731 283.647 186.505 282.647 186.505 281.5ZM205.453 287L201.153 282.16V287H199.333V272.2H201.153V280.9L205.373 276.04H207.913L202.753 281.5L207.933 287H205.453ZM221.278 287.14C219.985 287.14 218.805 286.84 217.738 286.24C216.671 285.627 215.825 284.78 215.198 283.7C214.585 282.607 214.278 281.38 214.278 280.02C214.278 278.66 214.585 277.44 215.198 276.36C215.825 275.267 216.671 274.42 217.738 273.82C218.805 273.207 219.985 272.9 221.278 272.9C222.585 272.9 223.771 273.207 224.838 273.82C225.905 274.42 226.745 275.26 227.358 276.34C227.971 277.42 228.278 278.647 228.278 280.02C228.278 281.393 227.971 282.62 227.358 283.7C226.745 284.78 225.905 285.627 224.838 286.24C223.771 286.84 222.585 287.14 221.278 287.14ZM221.278 285.56C222.251 285.56 223.125 285.333 223.898 284.88C224.685 284.427 225.298 283.78 225.738 282.94C226.191 282.1 226.418 281.127 226.418 280.02C226.418 278.9 226.191 277.927 225.738 277.1C225.298 276.26 224.691 275.613 223.918 275.16C223.145 274.707 222.265 274.48 221.278 274.48C220.291 274.48 219.411 274.707 218.638 275.16C217.865 275.613 217.251 276.26 216.798 277.1C216.358 277.927 216.138 278.9 216.138 280.02C216.138 281.127 216.358 282.1 216.798 282.94C217.251 283.78 217.865 284.427 218.638 284.88C219.425 285.333 220.305 285.56 221.278 285.56ZM240.401 276.04V287H238.581V285.38C238.234 285.94 237.747 286.38 237.121 286.7C236.507 287.007 235.827 287.16 235.081 287.16C234.227 287.16 233.461 286.987 232.781 286.64C232.101 286.28 231.561 285.747 231.161 285.04C230.774 284.333 230.581 283.473 230.581 282.46V276.04H232.381V282.22C232.381 283.3 232.654 284.133 233.201 284.72C233.747 285.293 234.494 285.58 235.441 285.58C236.414 285.58 237.181 285.28 237.741 284.68C238.301 284.08 238.581 283.207 238.581 282.06V276.04H240.401ZM245.694 277.54V284C245.694 284.533 245.807 284.913 246.034 285.14C246.26 285.353 246.654 285.46 247.214 285.46H248.554V287H246.914C245.9 287 245.14 286.767 244.634 286.3C244.127 285.833 243.874 285.067 243.874 284V277.54H242.454V276.04H243.874V273.28H245.694V276.04H248.554V277.54H245.694Z" fill="black"/>
</svg>
