<svg width="113" height="25" viewBox="0 0 113 25" fill="none" xmlns="http://www.w3.org/2000/svg">
<g clip-path="url(#clip0_11108_1946)">
<path fill-rule="evenodd" clip-rule="evenodd" d="M0 12.0558C0 17.0275 3.61083 21.1617 8.33333 22V14.7775H5.83333V12H8.33333V9.7775C8.33333 7.2775 9.94417 5.88917 12.2225 5.88917C12.9442 5.88917 13.7225 6 14.4442 6.11083V8.66667H13.1667C11.9442 8.66667 11.6667 9.2775 11.6667 10.0558V12H14.3333L13.8892 14.7775H11.6667V22C16.3892 21.1617 20 17.0283 20 12.0558C20 6.525 15.5 2 10 2C4.5 2 0 6.525 0 12.0558Z" fill="black"/>
</g>
<path d="M100.5 1.5625C94.46 1.5625 89.5625 6.45996 89.5625 12.5C89.5625 18.54 94.46 23.4375 100.5 23.4375C106.54 23.4375 111.438 18.54 111.438 12.5C111.438 6.45996 106.54 1.5625 100.5 1.5625ZM105.756 9.80713C105.764 9.92188 105.764 10.0415 105.764 10.1587C105.764 13.7427 103.034 17.8711 98.0464 17.8711C96.5083 17.8711 95.0825 17.4243 93.8813 16.6553C94.1011 16.6797 94.311 16.6895 94.5356 16.6895C95.8052 16.6895 96.9722 16.2598 97.9023 15.5322C96.7109 15.5078 95.71 14.7266 95.3682 13.6523C95.7856 13.7134 96.1616 13.7134 96.5913 13.6035C95.9778 13.4789 95.4265 13.1457 95.0308 12.6606C94.6352 12.1755 94.4196 11.5684 94.4209 10.9424V10.9082C94.7798 11.1108 95.2021 11.2354 95.644 11.2524C95.2726 11.0049 94.9679 10.6695 94.7571 10.276C94.5463 9.88244 94.4358 9.443 94.4355 8.99658C94.4355 8.49121 94.5674 8.02979 94.8042 7.62939C95.4851 8.46762 96.3348 9.15318 97.298 9.64152C98.2612 10.1299 99.3164 10.41 100.395 10.4639C100.012 8.62061 101.389 7.12891 103.044 7.12891C103.825 7.12891 104.528 7.45605 105.024 7.9834C105.637 7.86865 106.223 7.63916 106.745 7.33154C106.542 7.95898 106.118 8.48877 105.554 8.82324C106.101 8.76465 106.628 8.61328 107.116 8.40088C106.748 8.94287 106.286 9.42383 105.756 9.80713V9.80713Z" fill="black"/>
<g clip-path="url(#clip1_11108_1946)">
<path fill-rule="evenodd" clip-rule="evenodd" d="M45.8333 4.36565C45.8333 3.95943 45.9946 3.56984 46.2819 3.2826C46.5691 2.99536 46.9587 2.83399 47.3649 2.83399H62.6333C62.8346 2.83366 63.034 2.87304 63.22 2.94988C63.4061 3.02671 63.5752 3.13949 63.7176 3.28177C63.8601 3.42404 63.973 3.59301 64.0501 3.77899C64.1271 3.96498 64.1667 4.16434 64.1666 4.36565V19.634C64.1668 19.8353 64.1273 20.0348 64.0504 20.2208C63.9735 20.4069 63.8606 20.576 63.7183 20.7184C63.5759 20.8608 63.4069 20.9738 63.2209 21.0508C63.0348 21.1278 62.8354 21.1674 62.6341 21.1673H47.3649C47.1637 21.1673 46.9645 21.1277 46.7786 21.0506C46.5927 20.9736 46.4238 20.8607 46.2816 20.7184C46.1393 20.5761 46.0265 20.4071 45.9496 20.2212C45.8727 20.0353 45.8331 19.836 45.8333 19.6348V4.36565ZM53.0899 9.82399H55.5724V11.0707C55.9308 10.354 56.8474 9.70899 58.2249 9.70899C60.8658 9.70899 61.4916 11.1365 61.4916 13.7557V18.6073H58.8191V14.3523C58.8191 12.8607 58.4608 12.019 57.5508 12.019C56.2883 12.019 55.7633 12.9265 55.7633 14.3523V18.6073H53.0899V9.82399ZM48.5066 18.4932H51.1799V9.70899H48.5066V18.4923V18.4932ZM51.5624 6.84399C51.5675 7.07288 51.5267 7.30048 51.4426 7.51342C51.3585 7.72635 51.2327 7.92035 51.0726 8.08401C50.9125 8.24768 50.7213 8.37771 50.5103 8.46649C50.2993 8.55527 50.0726 8.601 49.8437 8.601C49.6147 8.601 49.3881 8.55527 49.177 8.46649C48.966 8.37771 48.7748 8.24768 48.6147 8.08401C48.4546 7.92035 48.3288 7.72635 48.2447 7.51342C48.1606 7.30048 48.1199 7.07288 48.1249 6.84399C48.1348 6.3947 48.3202 5.96715 48.6415 5.65289C48.9627 5.33864 49.3943 5.16267 49.8437 5.16267C50.2931 5.16267 50.7246 5.33864 51.0458 5.65289C51.3671 5.96715 51.5525 6.3947 51.5624 6.84399V6.84399Z" fill="black"/>
</g>
<defs>
<clipPath id="clip0_11108_1946">
<rect width="20" height="20" fill="white" transform="translate(0 2)"/>
</clipPath>
<clipPath id="clip1_11108_1946">
<rect width="20" height="20" fill="white" transform="translate(45 2)"/>
</clipPath>
</defs>
</svg>
