<svg width="298" height="134" viewBox="0 0 298 134" fill="none" xmlns="http://www.w3.org/2000/svg">
<path d="M5.268 18.112C4.532 18.112 3.87067 17.984 3.284 17.728C2.708 17.4613 2.25467 17.0987 1.924 16.64C1.59333 16.1707 1.42267 15.632 1.412 15.024H2.964C3.01733 15.5467 3.23067 15.9893 3.604 16.352C3.988 16.704 4.54267 16.88 5.268 16.88C5.96133 16.88 6.50533 16.7093 6.9 16.368C7.30533 16.016 7.508 15.568 7.508 15.024C7.508 14.5973 7.39067 14.2507 7.156 13.984C6.92133 13.7173 6.628 13.5147 6.276 13.376C5.924 13.2373 5.44933 13.088 4.852 12.928C4.116 12.736 3.524 12.544 3.076 12.352C2.63867 12.16 2.26 11.8613 1.94 11.456C1.63067 11.04 1.476 10.4853 1.476 9.792C1.476 9.184 1.63067 8.64533 1.94 8.176C2.24933 7.70667 2.68133 7.344 3.236 7.088C3.80133 6.832 4.44667 6.704 5.172 6.704C6.21733 6.704 7.07067 6.96533 7.732 7.488C8.404 8.01067 8.78267 8.704 8.868 9.568H7.268C7.21467 9.14133 6.99067 8.768 6.596 8.448C6.20133 8.11733 5.67867 7.952 5.028 7.952C4.42 7.952 3.924 8.112 3.54 8.432C3.156 8.74133 2.964 9.17867 2.964 9.744C2.964 10.1493 3.076 10.48 3.3 10.736C3.53467 10.992 3.81733 11.1893 4.148 11.328C4.48933 11.456 4.964 11.6053 5.572 11.776C6.308 11.9787 6.9 12.1813 7.348 12.384C7.796 12.576 8.18 12.88 8.5 13.296C8.82 13.7013 8.98 14.256 8.98 14.96C8.98 15.504 8.836 16.016 8.548 16.496C8.26 16.976 7.83333 17.3653 7.268 17.664C6.70267 17.9627 6.036 18.112 5.268 18.112ZM17.1706 18L12.5786 12.912V18H11.1226V6.848H12.5786V12.016L17.1866 6.848H19.0266L13.9706 12.432L19.0746 18H17.1706ZM22.1248 6.848V13.904C22.1248 14.896 22.3648 15.632 22.8448 16.112C23.3354 16.592 24.0128 16.832 24.8768 16.832C25.7301 16.832 26.3968 16.592 26.8768 16.112C27.3674 15.632 27.6128 14.896 27.6128 13.904V6.848H29.0688V13.888C29.0688 14.816 28.8821 15.6 28.5087 16.24C28.1354 16.8693 27.6288 17.3387 26.9888 17.648C26.3594 17.9573 25.6501 18.112 24.8608 18.112C24.0714 18.112 23.3568 17.9573 22.7168 17.648C22.0874 17.3387 21.5861 16.8693 21.2128 16.24C20.8501 15.6 20.6688 14.816 20.6688 13.888V6.848H22.1248Z" fill="#9F9F9F"/>
<path d="M112.268 18.112C111.532 18.112 110.871 17.984 110.284 17.728C109.708 17.4613 109.255 17.0987 108.924 16.64C108.593 16.1707 108.423 15.632 108.412 15.024H109.964C110.017 15.5467 110.231 15.9893 110.604 16.352C110.988 16.704 111.543 16.88 112.268 16.88C112.961 16.88 113.505 16.7093 113.9 16.368C114.305 16.016 114.508 15.568 114.508 15.024C114.508 14.5973 114.391 14.2507 114.156 13.984C113.921 13.7173 113.628 13.5147 113.276 13.376C112.924 13.2373 112.449 13.088 111.852 12.928C111.116 12.736 110.524 12.544 110.076 12.352C109.639 12.16 109.26 11.8613 108.94 11.456C108.631 11.04 108.476 10.4853 108.476 9.792C108.476 9.184 108.631 8.64533 108.94 8.176C109.249 7.70667 109.681 7.344 110.236 7.088C110.801 6.832 111.447 6.704 112.172 6.704C113.217 6.704 114.071 6.96533 114.732 7.488C115.404 8.01067 115.783 8.704 115.868 9.568H114.268C114.215 9.14133 113.991 8.768 113.596 8.448C113.201 8.11733 112.679 7.952 112.028 7.952C111.42 7.952 110.924 8.112 110.54 8.432C110.156 8.74133 109.964 9.17867 109.964 9.744C109.964 10.1493 110.076 10.48 110.3 10.736C110.535 10.992 110.817 11.1893 111.148 11.328C111.489 11.456 111.964 11.6053 112.572 11.776C113.308 11.9787 113.9 12.1813 114.348 12.384C114.796 12.576 115.18 12.88 115.5 13.296C115.82 13.7013 115.98 14.256 115.98 14.96C115.98 15.504 115.836 16.016 115.548 16.496C115.26 16.976 114.833 17.3653 114.268 17.664C113.703 17.9627 113.036 18.112 112.268 18.112ZM121.659 18.112C120.923 18.112 120.261 17.984 119.675 17.728C119.099 17.4613 118.645 17.0987 118.315 16.64C117.984 16.1707 117.813 15.632 117.803 15.024H119.355C119.408 15.5467 119.621 15.9893 119.995 16.352C120.379 16.704 120.933 16.88 121.659 16.88C122.352 16.88 122.896 16.7093 123.291 16.368C123.696 16.016 123.899 15.568 123.899 15.024C123.899 14.5973 123.781 14.2507 123.547 13.984C123.312 13.7173 123.019 13.5147 122.667 13.376C122.315 13.2373 121.84 13.088 121.243 12.928C120.507 12.736 119.915 12.544 119.467 12.352C119.029 12.16 118.651 11.8613 118.331 11.456C118.021 11.04 117.867 10.4853 117.867 9.792C117.867 9.184 118.021 8.64533 118.331 8.176C118.64 7.70667 119.072 7.344 119.627 7.088C120.192 6.832 120.837 6.704 121.563 6.704C122.608 6.704 123.461 6.96533 124.123 7.488C124.795 8.01067 125.173 8.704 125.259 9.568H123.659C123.605 9.14133 123.381 8.768 122.987 8.448C122.592 8.11733 122.069 7.952 121.419 7.952C120.811 7.952 120.315 8.112 119.931 8.432C119.547 8.74133 119.355 9.17867 119.355 9.744C119.355 10.1493 119.467 10.48 119.691 10.736C119.925 10.992 120.208 11.1893 120.539 11.328C120.88 11.456 121.355 11.6053 121.963 11.776C122.699 11.9787 123.291 12.1813 123.739 12.384C124.187 12.576 124.571 12.88 124.891 13.296C125.211 13.7013 125.371 14.256 125.371 14.96C125.371 15.504 125.227 16.016 124.939 16.496C124.651 16.976 124.224 17.3653 123.659 17.664C123.093 17.9627 122.427 18.112 121.659 18.112ZM127.273 12.096C127.273 10.2613 127.572 8.832 128.169 7.808C128.767 6.77333 129.812 6.256 131.305 6.256C132.788 6.256 133.828 6.77333 134.425 7.808C135.023 8.832 135.321 10.2613 135.321 12.096C135.321 13.9627 135.023 15.4133 134.425 16.448C133.828 17.4827 132.788 18 131.305 18C129.812 18 128.767 17.4827 128.169 16.448C127.572 15.4133 127.273 13.9627 127.273 12.096ZM133.881 12.096C133.881 11.168 133.817 10.384 133.689 9.744C133.572 9.09333 133.321 8.57067 132.937 8.176C132.564 7.78133 132.02 7.584 131.305 7.584C130.58 7.584 130.025 7.78133 129.641 8.176C129.268 8.57067 129.017 9.09333 128.889 9.744C128.772 10.384 128.713 11.168 128.713 12.096C128.713 13.056 128.772 13.8613 128.889 14.512C129.017 15.1627 129.268 15.6853 129.641 16.08C130.025 16.4747 130.58 16.672 131.305 16.672C132.02 16.672 132.564 16.4747 132.937 16.08C133.321 15.6853 133.572 15.1627 133.689 14.512C133.817 13.8613 133.881 13.056 133.881 12.096ZM137.32 12.096C137.32 10.2613 137.619 8.832 138.216 7.808C138.813 6.77333 139.859 6.256 141.352 6.256C142.835 6.256 143.875 6.77333 144.472 7.808C145.069 8.832 145.368 10.2613 145.368 12.096C145.368 13.9627 145.069 15.4133 144.472 16.448C143.875 17.4827 142.835 18 141.352 18C139.859 18 138.813 17.4827 138.216 16.448C137.619 15.4133 137.32 13.9627 137.32 12.096ZM143.928 12.096C143.928 11.168 143.864 10.384 143.736 9.744C143.619 9.09333 143.368 8.57067 142.984 8.176C142.611 7.78133 142.067 7.584 141.352 7.584C140.627 7.584 140.072 7.78133 139.688 8.176C139.315 8.57067 139.064 9.09333 138.936 9.744C138.819 10.384 138.76 11.168 138.76 12.096C138.76 13.056 138.819 13.8613 138.936 14.512C139.064 15.1627 139.315 15.6853 139.688 16.08C140.072 16.4747 140.627 16.672 141.352 16.672C142.067 16.672 142.611 16.4747 142.984 16.08C143.368 15.6853 143.619 15.1627 143.736 14.512C143.864 13.8613 143.928 13.056 143.928 12.096ZM146.983 7.76V6.432H149.991V18H148.519V7.76H146.983Z" fill="#9F9F9F"/>
<path d="M112.268 54.112C111.532 54.112 110.871 53.984 110.284 53.728C109.708 53.4613 109.255 53.0987 108.924 52.64C108.593 52.1707 108.423 51.632 108.412 51.024H109.964C110.017 51.5467 110.231 51.9893 110.604 52.352C110.988 52.704 111.543 52.88 112.268 52.88C112.961 52.88 113.505 52.7093 113.9 52.368C114.305 52.016 114.508 51.568 114.508 51.024C114.508 50.5973 114.391 50.2507 114.156 49.984C113.921 49.7173 113.628 49.5147 113.276 49.376C112.924 49.2373 112.449 49.088 111.852 48.928C111.116 48.736 110.524 48.544 110.076 48.352C109.639 48.16 109.26 47.8613 108.94 47.456C108.631 47.04 108.476 46.4853 108.476 45.792C108.476 45.184 108.631 44.6453 108.94 44.176C109.249 43.7067 109.681 43.344 110.236 43.088C110.801 42.832 111.447 42.704 112.172 42.704C113.217 42.704 114.071 42.9653 114.732 43.488C115.404 44.0107 115.783 44.704 115.868 45.568H114.268C114.215 45.1413 113.991 44.768 113.596 44.448C113.201 44.1173 112.679 43.952 112.028 43.952C111.42 43.952 110.924 44.112 110.54 44.432C110.156 44.7413 109.964 45.1787 109.964 45.744C109.964 46.1493 110.076 46.48 110.3 46.736C110.535 46.992 110.817 47.1893 111.148 47.328C111.489 47.456 111.964 47.6053 112.572 47.776C113.308 47.9787 113.9 48.1813 114.348 48.384C114.796 48.576 115.18 48.88 115.5 49.296C115.82 49.7013 115.98 50.256 115.98 50.96C115.98 51.504 115.836 52.016 115.548 52.496C115.26 52.976 114.833 53.3653 114.268 53.664C113.703 53.9627 113.036 54.112 112.268 54.112ZM121.947 54.144C121.125 54.144 120.379 53.9573 119.707 53.584C119.045 53.2107 118.523 52.6827 118.139 52C117.765 51.3067 117.579 50.5067 117.579 49.6C117.579 48.704 117.771 47.9147 118.155 47.232C118.549 46.5387 119.083 46.0107 119.755 45.648C120.427 45.2747 121.179 45.088 122.011 45.088C122.843 45.088 123.595 45.2747 124.267 45.648C124.939 46.0107 125.467 46.5333 125.851 47.216C126.245 47.8987 126.443 48.6933 126.443 49.6C126.443 50.5067 126.24 51.3067 125.835 52C125.44 52.6827 124.901 53.2107 124.219 53.584C123.536 53.9573 122.779 54.144 121.947 54.144ZM121.947 52.864C122.469 52.864 122.96 52.7413 123.419 52.496C123.877 52.2507 124.245 51.8827 124.523 51.392C124.811 50.9013 124.955 50.304 124.955 49.6C124.955 48.896 124.816 48.2987 124.539 47.808C124.261 47.3173 123.899 46.9547 123.451 46.72C123.003 46.4747 122.517 46.352 121.995 46.352C121.461 46.352 120.971 46.4747 120.523 46.72C120.085 46.9547 119.733 47.3173 119.467 47.808C119.2 48.2987 119.067 48.896 119.067 49.6C119.067 50.3147 119.195 50.9173 119.451 51.408C119.717 51.8987 120.069 52.2667 120.507 52.512C120.944 52.7467 121.424 52.864 121.947 52.864ZM131.925 46.432H130.085V54H128.629V46.432H127.493V45.232H128.629V44.608C128.629 43.6267 128.88 42.912 129.381 42.464C129.893 42.0053 130.709 41.776 131.829 41.776V42.992C131.189 42.992 130.736 43.12 130.469 43.376C130.213 43.6213 130.085 44.032 130.085 44.608V45.232H131.925V46.432ZM133.079 49.584C133.079 48.688 133.26 47.904 133.623 47.232C133.985 46.5493 134.481 46.0213 135.111 45.648C135.751 45.2747 136.46 45.088 137.239 45.088C138.007 45.088 138.673 45.2533 139.239 45.584C139.804 45.9147 140.225 46.3307 140.503 46.832V45.232H141.975V54H140.503V52.368C140.215 52.88 139.783 53.3067 139.207 53.648C138.641 53.9787 137.98 54.144 137.223 54.144C136.444 54.144 135.74 53.952 135.111 53.568C134.481 53.184 133.985 52.6453 133.623 51.952C133.26 51.2587 133.079 50.4693 133.079 49.584ZM140.503 49.6C140.503 48.9387 140.369 48.3627 140.103 47.872C139.836 47.3813 139.473 47.008 139.015 46.752C138.567 46.4853 138.071 46.352 137.527 46.352C136.983 46.352 136.487 46.48 136.039 46.736C135.591 46.992 135.233 47.3653 134.967 47.856C134.7 48.3467 134.567 48.9227 134.567 49.584C134.567 50.256 134.7 50.8427 134.967 51.344C135.233 51.8347 135.591 52.2133 136.039 52.48C136.487 52.736 136.983 52.864 137.527 52.864C138.071 52.864 138.567 52.736 139.015 52.48C139.473 52.2133 139.836 51.8347 140.103 51.344C140.369 50.8427 140.503 50.2613 140.503 49.6ZM147.539 54.144C146.867 54.144 146.264 54.032 145.731 53.808C145.198 53.5733 144.776 53.2533 144.467 52.848C144.158 52.432 143.987 51.9573 143.955 51.424H145.459C145.502 51.8613 145.704 52.2187 146.067 52.496C146.44 52.7733 146.926 52.912 147.523 52.912C148.078 52.912 148.515 52.7893 148.835 52.544C149.155 52.2987 149.315 51.9893 149.315 51.616C149.315 51.232 149.144 50.9493 148.803 50.768C148.462 50.576 147.934 50.3893 147.219 50.208C146.568 50.0373 146.035 49.8667 145.619 49.696C145.214 49.5147 144.862 49.2533 144.563 48.912C144.275 48.56 144.131 48.1013 144.131 47.536C144.131 47.088 144.264 46.6773 144.531 46.304C144.798 45.9307 145.176 45.6373 145.667 45.424C146.158 45.2 146.718 45.088 147.347 45.088C148.318 45.088 149.102 45.3333 149.699 45.824C150.296 46.3147 150.616 46.9867 150.659 47.84H149.203C149.171 47.3813 148.984 47.0133 148.643 46.736C148.312 46.4587 147.864 46.32 147.299 46.32C146.776 46.32 146.36 46.432 146.051 46.656C145.742 46.88 145.587 47.1733 145.587 47.536C145.587 47.824 145.678 48.064 145.859 48.256C146.051 48.4373 146.286 48.5867 146.563 48.704C146.851 48.8107 147.246 48.9333 147.747 49.072C148.376 49.2427 148.888 49.4133 149.283 49.584C149.678 49.744 150.014 49.9893 150.291 50.32C150.579 50.6507 150.728 51.0827 150.739 51.616C150.739 52.096 150.606 52.528 150.339 52.912C150.072 53.296 149.694 53.6 149.203 53.824C148.723 54.0373 148.168 54.144 147.539 54.144Z" fill="#9F9F9F"/>
<path d="M112.268 90.112C111.532 90.112 110.871 89.984 110.284 89.728C109.708 89.4613 109.255 89.0987 108.924 88.64C108.593 88.1707 108.423 87.632 108.412 87.024H109.964C110.017 87.5467 110.231 87.9893 110.604 88.352C110.988 88.704 111.543 88.88 112.268 88.88C112.961 88.88 113.505 88.7093 113.9 88.368C114.305 88.016 114.508 87.568 114.508 87.024C114.508 86.5973 114.391 86.2507 114.156 85.984C113.921 85.7173 113.628 85.5147 113.276 85.376C112.924 85.2373 112.449 85.088 111.852 84.928C111.116 84.736 110.524 84.544 110.076 84.352C109.639 84.16 109.26 83.8613 108.94 83.456C108.631 83.04 108.476 82.4853 108.476 81.792C108.476 81.184 108.631 80.6453 108.94 80.176C109.249 79.7067 109.681 79.344 110.236 79.088C110.801 78.832 111.447 78.704 112.172 78.704C113.217 78.704 114.071 78.9653 114.732 79.488C115.404 80.0107 115.783 80.704 115.868 81.568H114.268C114.215 81.1413 113.991 80.768 113.596 80.448C113.201 80.1173 112.679 79.952 112.028 79.952C111.42 79.952 110.924 80.112 110.54 80.432C110.156 80.7413 109.964 81.1787 109.964 81.744C109.964 82.1493 110.076 82.48 110.3 82.736C110.535 82.992 110.817 83.1893 111.148 83.328C111.489 83.456 111.964 83.6053 112.572 83.776C113.308 83.9787 113.9 84.1813 114.348 84.384C114.796 84.576 115.18 84.88 115.5 85.296C115.82 85.7013 115.98 86.256 115.98 86.96C115.98 87.504 115.836 88.016 115.548 88.496C115.26 88.976 114.833 89.3653 114.268 89.664C113.703 89.9627 113.036 90.112 112.268 90.112ZM121.947 90.144C121.125 90.144 120.379 89.9573 119.707 89.584C119.045 89.2107 118.523 88.6827 118.139 88C117.765 87.3067 117.579 86.5067 117.579 85.6C117.579 84.704 117.771 83.9147 118.155 83.232C118.549 82.5387 119.083 82.0107 119.755 81.648C120.427 81.2747 121.179 81.088 122.011 81.088C122.843 81.088 123.595 81.2747 124.267 81.648C124.939 82.0107 125.467 82.5333 125.851 83.216C126.245 83.8987 126.443 84.6933 126.443 85.6C126.443 86.5067 126.24 87.3067 125.835 88C125.44 88.6827 124.901 89.2107 124.219 89.584C123.536 89.9573 122.779 90.144 121.947 90.144ZM121.947 88.864C122.469 88.864 122.96 88.7413 123.419 88.496C123.877 88.2507 124.245 87.8827 124.523 87.392C124.811 86.9013 124.955 86.304 124.955 85.6C124.955 84.896 124.816 84.2987 124.539 83.808C124.261 83.3173 123.899 82.9547 123.451 82.72C123.003 82.4747 122.517 82.352 121.995 82.352C121.461 82.352 120.971 82.4747 120.523 82.72C120.085 82.9547 119.733 83.3173 119.467 83.808C119.2 84.2987 119.067 84.896 119.067 85.6C119.067 86.3147 119.195 86.9173 119.451 87.408C119.717 87.8987 120.069 88.2667 120.507 88.512C120.944 88.7467 121.424 88.864 121.947 88.864ZM131.925 82.432H130.085V90H128.629V82.432H127.493V81.232H128.629V80.608C128.629 79.6267 128.88 78.912 129.381 78.464C129.893 78.0053 130.709 77.776 131.829 77.776V78.992C131.189 78.992 130.736 79.12 130.469 79.376C130.213 79.6213 130.085 80.032 130.085 80.608V81.232H131.925V82.432ZM133.079 85.584C133.079 84.688 133.26 83.904 133.623 83.232C133.985 82.5493 134.481 82.0213 135.111 81.648C135.751 81.2747 136.46 81.088 137.239 81.088C138.007 81.088 138.673 81.2533 139.239 81.584C139.804 81.9147 140.225 82.3307 140.503 82.832V81.232H141.975V90H140.503V88.368C140.215 88.88 139.783 89.3067 139.207 89.648C138.641 89.9787 137.98 90.144 137.223 90.144C136.444 90.144 135.74 89.952 135.111 89.568C134.481 89.184 133.985 88.6453 133.623 87.952C133.26 87.2587 133.079 86.4693 133.079 85.584ZM140.503 85.6C140.503 84.9387 140.369 84.3627 140.103 83.872C139.836 83.3813 139.473 83.008 139.015 82.752C138.567 82.4853 138.071 82.352 137.527 82.352C136.983 82.352 136.487 82.48 136.039 82.736C135.591 82.992 135.233 83.3653 134.967 83.856C134.7 84.3467 134.567 84.9227 134.567 85.584C134.567 86.256 134.7 86.8427 134.967 87.344C135.233 87.8347 135.591 88.2133 136.039 88.48C136.487 88.736 136.983 88.864 137.527 88.864C138.071 88.864 138.567 88.736 139.015 88.48C139.473 88.2133 139.836 87.8347 140.103 87.344C140.369 86.8427 140.503 86.2613 140.503 85.6ZM145.939 87.984L144.147 92.288H143.171L144.339 87.984H145.939ZM151.329 84.416C151.329 83.328 151.574 82.352 152.065 81.488C152.555 80.6133 153.222 79.9307 154.065 79.44C154.918 78.9493 155.862 78.704 156.897 78.704C158.113 78.704 159.174 78.9973 160.081 79.584C160.987 80.1707 161.649 81.0027 162.065 82.08H160.321C160.011 81.408 159.563 80.8907 158.977 80.528C158.401 80.1653 157.707 79.984 156.897 79.984C156.118 79.984 155.419 80.1653 154.801 80.528C154.182 80.8907 153.697 81.408 153.345 82.08C152.993 82.7413 152.817 83.52 152.817 84.416C152.817 85.3013 152.993 86.08 153.345 86.752C153.697 87.4133 154.182 87.9253 154.801 88.288C155.419 88.6507 156.118 88.832 156.897 88.832C157.707 88.832 158.401 88.656 158.977 88.304C159.563 87.9413 160.011 87.424 160.321 86.752H162.065C161.649 87.8187 160.987 88.6453 160.081 89.232C159.174 89.808 158.113 90.096 156.897 90.096C155.862 90.096 154.918 89.856 154.065 89.376C153.222 88.8853 152.555 88.208 152.065 87.344C151.574 86.48 151.329 85.504 151.329 84.416ZM168.584 81.072C169.245 81.072 169.843 81.216 170.376 81.504C170.909 81.7813 171.325 82.2027 171.624 82.768C171.933 83.3333 172.088 84.0213 172.088 84.832V90H170.648V85.04C170.648 84.1653 170.429 83.4987 169.992 83.04C169.555 82.5707 168.957 82.336 168.2 82.336C167.432 82.336 166.819 82.576 166.36 83.056C165.912 83.536 165.688 84.2347 165.688 85.152V90H164.232V78.16H165.688V82.48C165.976 82.032 166.371 81.6853 166.872 81.44C167.384 81.1947 167.955 81.072 168.584 81.072ZM173.922 85.584C173.922 84.688 174.104 83.904 174.466 83.232C174.829 82.5493 175.325 82.0213 175.954 81.648C176.594 81.2747 177.304 81.088 178.082 81.088C178.85 81.088 179.517 81.2533 180.082 81.584C180.648 81.9147 181.069 82.3307 181.346 82.832V81.232H182.818V90H181.346V88.368C181.058 88.88 180.626 89.3067 180.05 89.648C179.485 89.9787 178.824 90.144 178.066 90.144C177.288 90.144 176.584 89.952 175.954 89.568C175.325 89.184 174.829 88.6453 174.466 87.952C174.104 87.2587 173.922 86.4693 173.922 85.584ZM181.346 85.6C181.346 84.9387 181.213 84.3627 180.946 83.872C180.68 83.3813 180.317 83.008 179.858 82.752C179.41 82.4853 178.914 82.352 178.37 82.352C177.826 82.352 177.33 82.48 176.882 82.736C176.434 82.992 176.077 83.3653 175.81 83.856C175.544 84.3467 175.41 84.9227 175.41 85.584C175.41 86.256 175.544 86.8427 175.81 87.344C176.077 87.8347 176.434 88.2133 176.882 88.48C177.33 88.736 177.826 88.864 178.37 88.864C178.914 88.864 179.41 88.736 179.858 88.48C180.317 88.2133 180.68 87.8347 180.946 87.344C181.213 86.8427 181.346 86.2613 181.346 85.6ZM186.031 79.808C185.754 79.808 185.519 79.712 185.327 79.52C185.135 79.328 185.039 79.0933 185.039 78.816C185.039 78.5387 185.135 78.304 185.327 78.112C185.519 77.92 185.754 77.824 186.031 77.824C186.298 77.824 186.522 77.92 186.703 78.112C186.895 78.304 186.991 78.5387 186.991 78.816C186.991 79.0933 186.895 79.328 186.703 79.52C186.522 79.712 186.298 79.808 186.031 79.808ZM186.735 81.232V90H185.279V81.232H186.735ZM190.672 82.656C190.928 82.1547 191.291 81.7653 191.76 81.488C192.24 81.2107 192.822 81.072 193.504 81.072V82.576H193.12C191.488 82.576 190.672 83.4613 190.672 85.232V90H189.216V81.232H190.672V82.656ZM196.689 87.984L194.897 92.288H193.921L195.089 87.984H196.689ZM211.215 78.848V90H209.759V84.944H204.079V90H202.623V78.848H204.079V83.744H209.759V78.848H211.215ZM217.525 90.144C216.703 90.144 215.957 89.9573 215.285 89.584C214.623 89.2107 214.101 88.6827 213.717 88C213.343 87.3067 213.157 86.5067 213.157 85.6C213.157 84.704 213.349 83.9147 213.733 83.232C214.127 82.5387 214.661 82.0107 215.333 81.648C216.005 81.2747 216.757 81.088 217.589 81.088C218.421 81.088 219.173 81.2747 219.845 81.648C220.517 82.0107 221.045 82.5333 221.429 83.216C221.823 83.8987 222.021 84.6933 222.021 85.6C222.021 86.5067 221.818 87.3067 221.413 88C221.018 88.6827 220.479 89.2107 219.797 89.584C219.114 89.9573 218.357 90.144 217.525 90.144ZM217.525 88.864C218.047 88.864 218.538 88.7413 218.997 88.496C219.455 88.2507 219.823 87.8827 220.101 87.392C220.389 86.9013 220.533 86.304 220.533 85.6C220.533 84.896 220.394 84.2987 220.117 83.808C219.839 83.3173 219.477 82.9547 219.029 82.72C218.581 82.4747 218.095 82.352 217.573 82.352C217.039 82.352 216.549 82.4747 216.101 82.72C215.663 82.9547 215.311 83.3173 215.045 83.808C214.778 84.2987 214.645 84.896 214.645 85.6C214.645 86.3147 214.773 86.9173 215.029 87.408C215.295 87.8987 215.647 88.2667 216.085 88.512C216.522 88.7467 217.002 88.864 217.525 88.864ZM234.479 81.072C235.162 81.072 235.77 81.216 236.303 81.504C236.836 81.7813 237.258 82.2027 237.567 82.768C237.876 83.3333 238.031 84.0213 238.031 84.832V90H236.591V85.04C236.591 84.1653 236.372 83.4987 235.935 83.04C235.508 82.5707 234.927 82.336 234.191 82.336C233.434 82.336 232.831 82.5813 232.383 83.072C231.935 83.552 231.711 84.2507 231.711 85.168V90H230.271V85.04C230.271 84.1653 230.052 83.4987 229.615 83.04C229.188 82.5707 228.607 82.336 227.871 82.336C227.114 82.336 226.511 82.5813 226.063 83.072C225.615 83.552 225.391 84.2507 225.391 85.168V90H223.935V81.232H225.391V82.496C225.679 82.0373 226.063 81.6853 226.543 81.44C227.034 81.1947 227.572 81.072 228.159 81.072C228.895 81.072 229.546 81.2373 230.111 81.568C230.676 81.8987 231.098 82.384 231.375 83.024C231.62 82.4053 232.026 81.9253 232.591 81.584C233.156 81.2427 233.786 81.072 234.479 81.072ZM248.42 85.28C248.42 85.5573 248.404 85.8507 248.372 86.16H241.364C241.417 87.024 241.71 87.7013 242.244 88.192C242.788 88.672 243.444 88.912 244.212 88.912C244.841 88.912 245.364 88.768 245.78 88.48C246.206 88.1813 246.505 87.7867 246.676 87.296H248.244C248.009 88.1387 247.54 88.8267 246.836 89.36C246.132 89.8827 245.257 90.144 244.212 90.144C243.38 90.144 242.633 89.9573 241.972 89.584C241.321 89.2107 240.809 88.6827 240.436 88C240.062 87.3067 239.876 86.5067 239.876 85.6C239.876 84.6933 240.057 83.8987 240.42 83.216C240.782 82.5333 241.289 82.0107 241.94 81.648C242.601 81.2747 243.358 81.088 244.212 81.088C245.044 81.088 245.78 81.2693 246.42 81.632C247.06 81.9947 247.55 82.496 247.892 83.136C248.244 83.7653 248.42 84.48 248.42 85.28ZM246.916 84.976C246.916 84.4213 246.793 83.9467 246.548 83.552C246.302 83.1467 245.966 82.8427 245.54 82.64C245.124 82.4267 244.66 82.32 244.148 82.32C243.412 82.32 242.782 82.5547 242.26 83.024C241.748 83.4933 241.454 84.144 241.38 84.976H246.916ZM251.845 87.984L250.053 92.288H249.077L250.245 87.984H251.845ZM261.315 90.112C260.579 90.112 259.918 89.984 259.331 89.728C258.755 89.4613 258.302 89.0987 257.971 88.64C257.64 88.1707 257.47 87.632 257.459 87.024H259.011C259.064 87.5467 259.278 87.9893 259.651 88.352C260.035 88.704 260.59 88.88 261.315 88.88C262.008 88.88 262.552 88.7093 262.947 88.368C263.352 88.016 263.555 87.568 263.555 87.024C263.555 86.5973 263.438 86.2507 263.203 85.984C262.968 85.7173 262.675 85.5147 262.323 85.376C261.971 85.2373 261.496 85.088 260.899 84.928C260.163 84.736 259.571 84.544 259.123 84.352C258.686 84.16 258.307 83.8613 257.987 83.456C257.678 83.04 257.523 82.4853 257.523 81.792C257.523 81.184 257.678 80.6453 257.987 80.176C258.296 79.7067 258.728 79.344 259.283 79.088C259.848 78.832 260.494 78.704 261.219 78.704C262.264 78.704 263.118 78.9653 263.779 79.488C264.451 80.0107 264.83 80.704 264.915 81.568H263.315C263.262 81.1413 263.038 80.768 262.643 80.448C262.248 80.1173 261.726 79.952 261.075 79.952C260.467 79.952 259.971 80.112 259.587 80.432C259.203 80.7413 259.011 81.1787 259.011 81.744C259.011 82.1493 259.123 82.48 259.347 82.736C259.582 82.992 259.864 83.1893 260.195 83.328C260.536 83.456 261.011 83.6053 261.619 83.776C262.355 83.9787 262.947 84.1813 263.395 84.384C263.843 84.576 264.227 84.88 264.547 85.296C264.867 85.7013 265.027 86.256 265.027 86.96C265.027 87.504 264.883 88.016 264.595 88.496C264.307 88.976 263.88 89.3653 263.315 89.664C262.75 89.9627 262.083 90.112 261.315 90.112ZM271.522 81.072C272.183 81.072 272.78 81.216 273.314 81.504C273.847 81.7813 274.263 82.2027 274.562 82.768C274.871 83.3333 275.026 84.0213 275.026 84.832V90H273.586V85.04C273.586 84.1653 273.367 83.4987 272.93 83.04C272.492 82.5707 271.895 82.336 271.138 82.336C270.37 82.336 269.756 82.576 269.298 83.056C268.85 83.536 268.626 84.2347 268.626 85.152V90H267.17V78.16H268.626V82.48C268.914 82.032 269.308 81.6853 269.81 81.44C270.322 81.1947 270.892 81.072 271.522 81.072ZM281.228 90.144C280.407 90.144 279.66 89.9573 278.988 89.584C278.327 89.2107 277.804 88.6827 277.42 88C277.047 87.3067 276.86 86.5067 276.86 85.6C276.86 84.704 277.052 83.9147 277.436 83.232C277.831 82.5387 278.364 82.0107 279.036 81.648C279.708 81.2747 280.46 81.088 281.292 81.088C282.124 81.088 282.876 81.2747 283.548 81.648C284.22 82.0107 284.748 82.5333 285.132 83.216C285.527 83.8987 285.724 84.6933 285.724 85.6C285.724 86.5067 285.521 87.3067 285.116 88C284.721 88.6827 284.183 89.2107 283.5 89.584C282.817 89.9573 282.06 90.144 281.228 90.144ZM281.228 88.864C281.751 88.864 282.241 88.7413 282.7 88.496C283.159 88.2507 283.527 87.8827 283.804 87.392C284.092 86.9013 284.236 86.304 284.236 85.6C284.236 84.896 284.097 84.2987 283.82 83.808C283.543 83.3173 283.18 82.9547 282.732 82.72C282.284 82.4747 281.799 82.352 281.276 82.352C280.743 82.352 280.252 82.4747 279.804 82.72C279.367 82.9547 279.015 83.3173 278.748 83.808C278.481 84.2987 278.348 84.896 278.348 85.6C278.348 86.3147 278.476 86.9173 278.732 87.408C278.999 87.8987 279.351 88.2667 279.788 88.512C280.225 88.7467 280.705 88.864 281.228 88.864ZM289.094 82.848C289.382 82.3467 289.809 81.9307 290.374 81.6C290.95 81.2587 291.617 81.088 292.374 81.088C293.153 81.088 293.857 81.2747 294.486 81.648C295.126 82.0213 295.628 82.5493 295.99 83.232C296.353 83.904 296.534 84.688 296.534 85.584C296.534 86.4693 296.353 87.2587 295.99 87.952C295.628 88.6453 295.126 89.184 294.486 89.568C293.857 89.952 293.153 90.144 292.374 90.144C291.628 90.144 290.966 89.9787 290.39 89.648C289.825 89.3067 289.393 88.8853 289.094 88.384V94.16H287.638V81.232H289.094V82.848ZM295.046 85.584C295.046 84.9227 294.913 84.3467 294.646 83.856C294.38 83.3653 294.017 82.992 293.558 82.736C293.11 82.48 292.614 82.352 292.07 82.352C291.537 82.352 291.041 82.4853 290.582 82.752C290.134 83.008 289.772 83.3867 289.494 83.888C289.228 84.3787 289.094 84.9493 289.094 85.6C289.094 86.2613 289.228 86.8427 289.494 87.344C289.772 87.8347 290.134 88.2133 290.582 88.48C291.041 88.736 291.537 88.864 292.07 88.864C292.614 88.864 293.11 88.736 293.558 88.48C294.017 88.2133 294.38 87.8347 294.646 87.344C294.913 86.8427 295.046 86.256 295.046 85.584Z" fill="#9F9F9F"/>
<path d="M93.436 18.112C93.1053 18.112 92.828 18 92.604 17.776C92.38 17.552 92.268 17.2747 92.268 16.944C92.268 16.6133 92.38 16.336 92.604 16.112C92.828 15.888 93.1053 15.776 93.436 15.776C93.756 15.776 94.028 15.888 94.252 16.112C94.476 16.336 94.588 16.6133 94.588 16.944C94.588 17.2747 94.476 17.552 94.252 17.776C94.028 18 93.756 18.112 93.436 18.112ZM93.436 11.392C93.1053 11.392 92.828 11.28 92.604 11.056C92.38 10.832 92.268 10.5547 92.268 10.224C92.268 9.89333 92.38 9.616 92.604 9.392C92.828 9.168 93.1053 9.056 93.436 9.056C93.756 9.056 94.028 9.168 94.252 9.392C94.476 9.616 94.588 9.89333 94.588 10.224C94.588 10.5547 94.476 10.832 94.252 11.056C94.028 11.28 93.756 11.392 93.436 11.392Z" fill="#9F9F9F"/>
<path d="M93.436 54.112C93.1053 54.112 92.828 54 92.604 53.776C92.38 53.552 92.268 53.2747 92.268 52.944C92.268 52.6133 92.38 52.336 92.604 52.112C92.828 51.888 93.1053 51.776 93.436 51.776C93.756 51.776 94.028 51.888 94.252 52.112C94.476 52.336 94.588 52.6133 94.588 52.944C94.588 53.2747 94.476 53.552 94.252 53.776C94.028 54 93.756 54.112 93.436 54.112ZM93.436 47.392C93.1053 47.392 92.828 47.28 92.604 47.056C92.38 46.832 92.268 46.5547 92.268 46.224C92.268 45.8933 92.38 45.616 92.604 45.392C92.828 45.168 93.1053 45.056 93.436 45.056C93.756 45.056 94.028 45.168 94.252 45.392C94.476 45.616 94.588 45.8933 94.588 46.224C94.588 46.5547 94.476 46.832 94.252 47.056C94.028 47.28 93.756 47.392 93.436 47.392Z" fill="#9F9F9F"/>
<path d="M93.436 90.112C93.1053 90.112 92.828 90 92.604 89.776C92.38 89.552 92.268 89.2747 92.268 88.944C92.268 88.6133 92.38 88.336 92.604 88.112C92.828 87.888 93.1053 87.776 93.436 87.776C93.756 87.776 94.028 87.888 94.252 88.112C94.476 88.336 94.588 88.6133 94.588 88.944C94.588 89.2747 94.476 89.552 94.252 89.776C94.028 90 93.756 90.112 93.436 90.112ZM93.436 83.392C93.1053 83.392 92.828 83.28 92.604 83.056C92.38 82.832 92.268 82.5547 92.268 82.224C92.268 81.8933 92.38 81.616 92.604 81.392C92.828 81.168 93.1053 81.056 93.436 81.056C93.756 81.056 94.028 81.168 94.252 81.392C94.476 81.616 94.588 81.8933 94.588 82.224C94.588 82.5547 94.476 82.832 94.252 83.056C94.028 83.28 93.756 83.392 93.436 83.392Z" fill="#9F9F9F"/>
<path d="M93.436 126.112C93.1053 126.112 92.828 126 92.604 125.776C92.38 125.552 92.268 125.275 92.268 124.944C92.268 124.613 92.38 124.336 92.604 124.112C92.828 123.888 93.1053 123.776 93.436 123.776C93.756 123.776 94.028 123.888 94.252 124.112C94.476 124.336 94.588 124.613 94.588 124.944C94.588 125.275 94.476 125.552 94.252 125.776C94.028 126 93.756 126.112 93.436 126.112ZM93.436 119.392C93.1053 119.392 92.828 119.28 92.604 119.056C92.38 118.832 92.268 118.555 92.268 118.224C92.268 117.893 92.38 117.616 92.604 117.392C92.828 117.168 93.1053 117.056 93.436 117.056C93.756 117.056 94.028 117.168 94.252 117.392C94.476 117.616 94.588 117.893 94.588 118.224C94.588 118.555 94.476 118.832 94.252 119.056C94.028 119.28 93.756 119.392 93.436 119.392Z" fill="#9F9F9F"/>
<path d="M1.188 48.416C1.188 47.328 1.43333 46.352 1.924 45.488C2.41467 44.6133 3.08133 43.9307 3.924 43.44C4.77733 42.9493 5.72133 42.704 6.756 42.704C7.972 42.704 9.03333 42.9973 9.94 43.584C10.8467 44.1707 11.508 45.0027 11.924 46.08H10.18C9.87067 45.408 9.42267 44.8907 8.836 44.528C8.26 44.1653 7.56667 43.984 6.756 43.984C5.97733 43.984 5.27867 44.1653 4.66 44.528C4.04133 44.8907 3.556 45.408 3.204 46.08C2.852 46.7413 2.676 47.52 2.676 48.416C2.676 49.3013 2.852 50.08 3.204 50.752C3.556 51.4133 4.04133 51.9253 4.66 52.288C5.27867 52.6507 5.97733 52.832 6.756 52.832C7.56667 52.832 8.26 52.656 8.836 52.304C9.42267 51.9413 9.87067 51.424 10.18 50.752H11.924C11.508 51.8187 10.8467 52.6453 9.94 53.232C9.03333 53.808 7.972 54.096 6.756 54.096C5.72133 54.096 4.77733 53.856 3.924 53.376C3.08133 52.8853 2.41467 52.208 1.924 51.344C1.43333 50.48 1.188 49.504 1.188 48.416ZM13.5474 49.584C13.5474 48.688 13.7287 47.904 14.0914 47.232C14.454 46.5493 14.95 46.0213 15.5794 45.648C16.2194 45.2747 16.9287 45.088 17.7074 45.088C18.4754 45.088 19.142 45.2533 19.7074 45.584C20.2727 45.9147 20.694 46.3307 20.9714 46.832V45.232H22.4434V54H20.9714V52.368C20.6834 52.88 20.2514 53.3067 19.6754 53.648C19.11 53.9787 18.4487 54.144 17.6914 54.144C16.9127 54.144 16.2087 53.952 15.5794 53.568C14.95 53.184 14.454 52.6453 14.0914 51.952C13.7287 51.2587 13.5474 50.4693 13.5474 49.584ZM20.9714 49.6C20.9714 48.9387 20.838 48.3627 20.5714 47.872C20.3047 47.3813 19.942 47.008 19.4834 46.752C19.0354 46.4853 18.5394 46.352 17.9954 46.352C17.4514 46.352 16.9554 46.48 16.5074 46.736C16.0594 46.992 15.702 47.3653 15.4354 47.856C15.1687 48.3467 15.0354 48.9227 15.0354 49.584C15.0354 50.256 15.1687 50.8427 15.4354 51.344C15.702 51.8347 16.0594 52.2133 16.5074 52.48C16.9554 52.736 17.4514 52.864 17.9954 52.864C18.5394 52.864 19.0354 52.736 19.4834 52.48C19.942 52.2133 20.3047 51.8347 20.5714 51.344C20.838 50.8427 20.9714 50.2613 20.9714 49.6ZM26.6799 46.432V51.6C26.6799 52.0267 26.7705 52.3307 26.9519 52.512C27.1332 52.6827 27.4479 52.768 27.8959 52.768H28.9679V54H27.6559C26.8452 54 26.2372 53.8133 25.8319 53.44C25.4265 53.0667 25.2239 52.4533 25.2239 51.6V46.432H24.0879V45.232H25.2239V43.024H26.6799V45.232H28.9679V46.432H26.6799ZM38.732 49.28C38.732 49.5573 38.716 49.8507 38.684 50.16H31.676C31.7293 51.024 32.0227 51.7013 32.556 52.192C33.1 52.672 33.756 52.912 34.524 52.912C35.1533 52.912 35.676 52.768 36.092 52.48C36.5187 52.1813 36.8173 51.7867 36.988 51.296H38.556C38.3213 52.1387 37.852 52.8267 37.148 53.36C36.444 53.8827 35.5693 54.144 34.524 54.144C33.692 54.144 32.9453 53.9573 32.284 53.584C31.6333 53.2107 31.1213 52.6827 30.748 52C30.3747 51.3067 30.188 50.5067 30.188 49.6C30.188 48.6933 30.3693 47.8987 30.732 47.216C31.0947 46.5333 31.6013 46.0107 32.252 45.648C32.9133 45.2747 33.6707 45.088 34.524 45.088C35.356 45.088 36.092 45.2693 36.732 45.632C37.372 45.9947 37.8627 46.496 38.204 47.136C38.556 47.7653 38.732 48.48 38.732 49.28ZM37.228 48.976C37.228 48.4213 37.1053 47.9467 36.86 47.552C36.6147 47.1467 36.2787 46.8427 35.852 46.64C35.436 46.4267 34.972 46.32 34.46 46.32C33.724 46.32 33.0947 46.5547 32.572 47.024C32.06 47.4933 31.7667 48.144 31.692 48.976H37.228ZM44.2699 45.088C45.0272 45.088 45.6885 45.2533 46.2539 45.584C46.8299 45.9147 47.2565 46.3307 47.5339 46.832V45.232H49.0059V54.192C49.0059 54.992 48.8352 55.7013 48.4939 56.32C48.1525 56.9493 47.6619 57.44 47.0219 57.792C46.3925 58.144 45.6565 58.32 44.8139 58.32C43.6619 58.32 42.7019 58.048 41.9339 57.504C41.1659 56.96 40.7125 56.2187 40.5739 55.28H42.0139C42.1739 55.8133 42.5045 56.24 43.0059 56.56C43.5072 56.8907 44.1099 57.056 44.8139 57.056C45.6139 57.056 46.2645 56.8053 46.7659 56.304C47.2779 55.8027 47.5339 55.0987 47.5339 54.192V52.352C47.2459 52.864 46.8192 53.2907 46.2539 53.632C45.6885 53.9733 45.0272 54.144 44.2699 54.144C43.4912 54.144 42.7819 53.952 42.1419 53.568C41.5125 53.184 41.0165 52.6453 40.6539 51.952C40.2912 51.2587 40.1099 50.4693 40.1099 49.584C40.1099 48.688 40.2912 47.904 40.6539 47.232C41.0165 46.5493 41.5125 46.0213 42.1419 45.648C42.7819 45.2747 43.4912 45.088 44.2699 45.088ZM47.5339 49.6C47.5339 48.9387 47.4005 48.3627 47.1339 47.872C46.8672 47.3813 46.5045 47.008 46.0459 46.752C45.5979 46.4853 45.1019 46.352 44.5579 46.352C44.0139 46.352 43.5179 46.48 43.0699 46.736C42.6219 46.992 42.2645 47.3653 41.9979 47.856C41.7312 48.3467 41.5979 48.9227 41.5979 49.584C41.5979 50.256 41.7312 50.8427 41.9979 51.344C42.2645 51.8347 42.6219 52.2133 43.0699 52.48C43.5179 52.736 44.0139 52.864 44.5579 52.864C45.1019 52.864 45.5979 52.736 46.0459 52.48C46.5045 52.2133 46.8672 51.8347 47.1339 51.344C47.4005 50.8427 47.5339 50.2613 47.5339 49.6ZM55.2904 54.144C54.469 54.144 53.7224 53.9573 53.0504 53.584C52.389 53.2107 51.8664 52.6827 51.4824 52C51.109 51.3067 50.9224 50.5067 50.9224 49.6C50.9224 48.704 51.1144 47.9147 51.4984 47.232C51.893 46.5387 52.4264 46.0107 53.0984 45.648C53.7704 45.2747 54.5224 45.088 55.3544 45.088C56.1864 45.088 56.9384 45.2747 57.6104 45.648C58.2824 46.0107 58.8104 46.5333 59.1944 47.216C59.589 47.8987 59.7864 48.6933 59.7864 49.6C59.7864 50.5067 59.5837 51.3067 59.1784 52C58.7837 52.6827 58.245 53.2107 57.5624 53.584C56.8797 53.9573 56.1224 54.144 55.2904 54.144ZM55.2904 52.864C55.813 52.864 56.3037 52.7413 56.7624 52.496C57.221 52.2507 57.589 51.8827 57.8664 51.392C58.1544 50.9013 58.2984 50.304 58.2984 49.6C58.2984 48.896 58.1597 48.2987 57.8824 47.808C57.605 47.3173 57.2424 46.9547 56.7944 46.72C56.3464 46.4747 55.861 46.352 55.3384 46.352C54.805 46.352 54.3144 46.4747 53.8664 46.72C53.429 46.9547 53.077 47.3173 52.8104 47.808C52.5437 48.2987 52.4104 48.896 52.4104 49.6C52.4104 50.3147 52.5384 50.9173 52.7944 51.408C53.061 51.8987 53.413 52.2667 53.8504 52.512C54.2877 52.7467 54.7677 52.864 55.2904 52.864ZM63.1568 46.656C63.4128 46.1547 63.7754 45.7653 64.2448 45.488C64.7248 45.2107 65.3061 45.072 65.9888 45.072V46.576H65.6048C63.9728 46.576 63.1568 47.4613 63.1568 49.232V54H61.7008V45.232H63.1568V46.656ZM75.2215 45.232L69.9415 58.128H68.4375L70.1655 53.904L66.6295 45.232H68.2455L70.9975 52.336L73.7175 45.232H75.2215Z" fill="#9F9F9F"/>
<path d="M8.596 78.848V80.032H5.556V90H4.1V80.032H1.044V78.848H8.596ZM9.84425 85.584C9.84425 84.688 10.0256 83.904 10.3883 83.232C10.7509 82.5493 11.2469 82.0213 11.8763 81.648C12.5163 81.2747 13.2256 81.088 14.0043 81.088C14.7723 81.088 15.4389 81.2533 16.0043 81.584C16.5696 81.9147 16.9909 82.3307 17.2683 82.832V81.232H18.7403V90H17.2683V88.368C16.9803 88.88 16.5483 89.3067 15.9723 89.648C15.4069 89.9787 14.7456 90.144 13.9883 90.144C13.2096 90.144 12.5056 89.952 11.8763 89.568C11.2469 89.184 10.7509 88.6453 10.3883 87.952C10.0256 87.2587 9.84425 86.4693 9.84425 85.584ZM17.2683 85.6C17.2683 84.9387 17.1349 84.3627 16.8683 83.872C16.6016 83.3813 16.2389 83.008 15.7803 82.752C15.3323 82.4853 14.8363 82.352 14.2923 82.352C13.7483 82.352 13.2523 82.48 12.8043 82.736C12.3563 82.992 11.9989 83.3653 11.7323 83.856C11.4656 84.3467 11.3323 84.9227 11.3323 85.584C11.3323 86.256 11.4656 86.8427 11.7323 87.344C11.9989 87.8347 12.3563 88.2133 12.8043 88.48C13.2523 88.736 13.7483 88.864 14.2923 88.864C14.8363 88.864 15.3323 88.736 15.7803 88.48C16.2389 88.2133 16.6016 87.8347 16.8683 87.344C17.1349 86.8427 17.2683 86.2613 17.2683 85.6ZM24.8168 81.088C25.5741 81.088 26.2354 81.2533 26.8008 81.584C27.3768 81.9147 27.8034 82.3307 28.0808 82.832V81.232H29.5528V90.192C29.5528 90.992 29.3821 91.7013 29.0408 92.32C28.6994 92.9493 28.2088 93.44 27.5688 93.792C26.9394 94.144 26.2034 94.32 25.3608 94.32C24.2088 94.32 23.2488 94.048 22.4808 93.504C21.7128 92.96 21.2594 92.2187 21.1208 91.28H22.5608C22.7208 91.8133 23.0514 92.24 23.5528 92.56C24.0541 92.8907 24.6568 93.056 25.3608 93.056C26.1608 93.056 26.8114 92.8053 27.3128 92.304C27.8248 91.8027 28.0808 91.0987 28.0808 90.192V88.352C27.7928 88.864 27.3661 89.2907 26.8008 89.632C26.2354 89.9733 25.5741 90.144 24.8168 90.144C24.0381 90.144 23.3288 89.952 22.6888 89.568C22.0594 89.184 21.5634 88.6453 21.2008 87.952C20.8381 87.2587 20.6568 86.4693 20.6568 85.584C20.6568 84.688 20.8381 83.904 21.2008 83.232C21.5634 82.5493 22.0594 82.0213 22.6888 81.648C23.3288 81.2747 24.0381 81.088 24.8168 81.088ZM28.0808 85.6C28.0808 84.9387 27.9474 84.3627 27.6808 83.872C27.4141 83.3813 27.0514 83.008 26.5928 82.752C26.1448 82.4853 25.6488 82.352 25.1048 82.352C24.5608 82.352 24.0648 82.48 23.6168 82.736C23.1688 82.992 22.8114 83.3653 22.5448 83.856C22.2781 84.3467 22.1448 84.9227 22.1448 85.584C22.1448 86.256 22.2781 86.8427 22.5448 87.344C22.8114 87.8347 23.1688 88.2133 23.6168 88.48C24.0648 88.736 24.5608 88.864 25.1048 88.864C25.6488 88.864 26.1448 88.736 26.5928 88.48C27.0514 88.2133 27.4141 87.8347 27.6808 87.344C27.9474 86.8427 28.0808 86.2613 28.0808 85.6ZM35.1173 90.144C34.4453 90.144 33.8426 90.032 33.3093 89.808C32.7759 89.5733 32.3546 89.2533 32.0453 88.848C31.7359 88.432 31.5653 87.9573 31.5333 87.424H33.0373C33.0799 87.8613 33.2826 88.2187 33.6453 88.496C34.0186 88.7733 34.5039 88.912 35.1013 88.912C35.6559 88.912 36.0933 88.7893 36.4133 88.544C36.7333 88.2987 36.8933 87.9893 36.8933 87.616C36.8933 87.232 36.7226 86.9493 36.3813 86.768C36.0399 86.576 35.5119 86.3893 34.7973 86.208C34.1466 86.0373 33.6133 85.8667 33.1973 85.696C32.7919 85.5147 32.4399 85.2533 32.1413 84.912C31.8533 84.56 31.7093 84.1013 31.7093 83.536C31.7093 83.088 31.8426 82.6773 32.1093 82.304C32.3759 81.9307 32.7546 81.6373 33.2453 81.424C33.7359 81.2 34.2959 81.088 34.9253 81.088C35.8959 81.088 36.6799 81.3333 37.2773 81.824C37.8746 82.3147 38.1946 82.9867 38.2373 83.84H36.7813C36.7493 83.3813 36.5626 83.0133 36.2213 82.736C35.8906 82.4587 35.4426 82.32 34.8773 82.32C34.3546 82.32 33.9386 82.432 33.6293 82.656C33.3199 82.88 33.1653 83.1733 33.1653 83.536C33.1653 83.824 33.2559 84.064 33.4373 84.256C33.6293 84.4373 33.8639 84.5867 34.1413 84.704C34.4293 84.8107 34.8239 84.9333 35.3253 85.072C35.9546 85.2427 36.4666 85.4133 36.8613 85.584C37.2559 85.744 37.5919 85.9893 37.8693 86.32C38.1573 86.6507 38.3066 87.0827 38.3173 87.616C38.3173 88.096 38.1839 88.528 37.9173 88.912C37.6506 89.296 37.2719 89.6 36.7813 89.824C36.3013 90.0373 35.7466 90.144 35.1173 90.144Z" fill="#9F9F9F"/>
<path d="M5.268 128.112C4.532 128.112 3.87067 127.984 3.284 127.728C2.708 127.461 2.25467 127.099 1.924 126.64C1.59333 126.171 1.42267 125.632 1.412 125.024H2.964C3.01733 125.547 3.23067 125.989 3.604 126.352C3.988 126.704 4.54267 126.88 5.268 126.88C5.96133 126.88 6.50533 126.709 6.9 126.368C7.30533 126.016 7.508 125.568 7.508 125.024C7.508 124.597 7.39067 124.251 7.156 123.984C6.92133 123.717 6.628 123.515 6.276 123.376C5.924 123.237 5.44933 123.088 4.852 122.928C4.116 122.736 3.524 122.544 3.076 122.352C2.63867 122.16 2.26 121.861 1.94 121.456C1.63067 121.04 1.476 120.485 1.476 119.792C1.476 119.184 1.63067 118.645 1.94 118.176C2.24933 117.707 2.68133 117.344 3.236 117.088C3.80133 116.832 4.44667 116.704 5.172 116.704C6.21733 116.704 7.07067 116.965 7.732 117.488C8.404 118.011 8.78267 118.704 8.868 119.568H7.268C7.21467 119.141 6.99067 118.768 6.596 118.448C6.20133 118.117 5.67867 117.952 5.028 117.952C4.42 117.952 3.924 118.112 3.54 118.432C3.156 118.741 2.964 119.179 2.964 119.744C2.964 120.149 3.076 120.48 3.3 120.736C3.53467 120.992 3.81733 121.189 4.148 121.328C4.48933 121.456 4.964 121.605 5.572 121.776C6.308 121.979 6.9 122.181 7.348 122.384C7.796 122.576 8.18 122.88 8.5 123.296C8.82 123.701 8.98 124.256 8.98 124.96C8.98 125.504 8.836 126.016 8.548 126.496C8.26 126.976 7.83333 127.365 7.268 127.664C6.70267 127.963 6.036 128.112 5.268 128.112ZM15.4746 119.072C16.136 119.072 16.7333 119.216 17.2666 119.504C17.8 119.781 18.216 120.203 18.5146 120.768C18.824 121.333 18.9786 122.021 18.9786 122.832V128H17.5386V123.04C17.5386 122.165 17.32 121.499 16.8826 121.04C16.4453 120.571 15.848 120.336 15.0906 120.336C14.3226 120.336 13.7093 120.576 13.2506 121.056C12.8026 121.536 12.5786 122.235 12.5786 123.152V128H11.1226V116.16H12.5786V120.48C12.8666 120.032 13.2613 119.685 13.7626 119.44C14.2746 119.195 14.8453 119.072 15.4746 119.072ZM20.813 123.584C20.813 122.688 20.9943 121.904 21.357 121.232C21.7197 120.549 22.2157 120.021 22.845 119.648C23.485 119.275 24.1943 119.088 24.973 119.088C25.741 119.088 26.4077 119.253 26.973 119.584C27.5383 119.915 27.9597 120.331 28.237 120.832V119.232H29.709V128H28.237V126.368C27.949 126.88 27.517 127.307 26.941 127.648C26.3757 127.979 25.7143 128.144 24.957 128.144C24.1783 128.144 23.4743 127.952 22.845 127.568C22.2157 127.184 21.7197 126.645 21.357 125.952C20.9943 125.259 20.813 124.469 20.813 123.584ZM28.237 123.6C28.237 122.939 28.1037 122.363 27.837 121.872C27.5703 121.381 27.2077 121.008 26.749 120.752C26.301 120.485 25.805 120.352 25.261 120.352C24.717 120.352 24.221 120.48 23.773 120.736C23.325 120.992 22.9677 121.365 22.701 121.856C22.4343 122.347 22.301 122.923 22.301 123.584C22.301 124.256 22.4343 124.843 22.701 125.344C22.9677 125.835 23.325 126.213 23.773 126.48C24.221 126.736 24.717 126.864 25.261 126.864C25.805 126.864 26.301 126.736 26.749 126.48C27.2077 126.213 27.5703 125.835 27.837 125.344C28.1037 124.843 28.237 124.261 28.237 123.6ZM33.6255 120.656C33.8815 120.155 34.2442 119.765 34.7135 119.488C35.1935 119.211 35.7748 119.072 36.4575 119.072V120.576H36.0735C34.4415 120.576 33.6255 121.461 33.6255 123.232V128H32.1695V119.232H33.6255V120.656ZM46.1383 123.28C46.1383 123.557 46.1223 123.851 46.0903 124.16H39.0823C39.1356 125.024 39.4289 125.701 39.9623 126.192C40.5063 126.672 41.1623 126.912 41.9303 126.912C42.5596 126.912 43.0823 126.768 43.4983 126.48C43.9249 126.181 44.2236 125.787 44.3943 125.296H45.9623C45.7276 126.139 45.2583 126.827 44.5543 127.36C43.8503 127.883 42.9756 128.144 41.9303 128.144C41.0983 128.144 40.3516 127.957 39.6903 127.584C39.0396 127.211 38.5276 126.683 38.1543 126C37.7809 125.307 37.5943 124.507 37.5943 123.6C37.5943 122.693 37.7756 121.899 38.1383 121.216C38.5009 120.533 39.0076 120.011 39.6583 119.648C40.3196 119.275 41.0769 119.088 41.9303 119.088C42.7623 119.088 43.4983 119.269 44.1383 119.632C44.7783 119.995 45.2689 120.496 45.6103 121.136C45.9623 121.765 46.1383 122.48 46.1383 123.28ZM44.6343 122.976C44.6343 122.421 44.5116 121.947 44.2663 121.552C44.0209 121.147 43.6849 120.843 43.2583 120.64C42.8423 120.427 42.3783 120.32 41.8663 120.32C41.1303 120.32 40.5009 120.555 39.9783 121.024C39.4663 121.493 39.1729 122.144 39.0983 122.976H44.6343Z" fill="#9F9F9F"/>
<g clip-path="url(#clip0_2175_1950)">
<path fill-rule="evenodd" clip-rule="evenodd" d="M107.5 122.056C107.5 127.028 111.111 131.162 115.833 132V124.777H113.333V122H115.833V119.777C115.833 117.278 117.444 115.889 119.722 115.889C120.444 115.889 121.222 116 121.944 116.111V118.667H120.667C119.444 118.667 119.167 119.277 119.167 120.056V122H121.833L121.389 124.777H119.167V132C123.889 131.162 127.5 127.028 127.5 122.056C127.5 116.525 123 112 117.5 112C112 112 107.5 116.525 107.5 122.056Z" fill="black"/>
</g>
<path fill-rule="evenodd" clip-rule="evenodd" d="M153.333 114.365C153.333 113.958 153.495 113.569 153.782 113.282C154.069 112.994 154.459 112.833 154.865 112.833H170.133C170.335 112.833 170.534 112.872 170.72 112.949C170.906 113.026 171.075 113.139 171.218 113.281C171.36 113.423 171.473 113.592 171.55 113.778C171.627 113.964 171.667 114.163 171.667 114.365V129.633C171.667 129.834 171.627 130.034 171.55 130.22C171.474 130.406 171.361 130.575 171.218 130.717C171.076 130.86 170.907 130.973 170.721 131.05C170.535 131.127 170.336 131.166 170.134 131.166H154.865C154.664 131.166 154.465 131.127 154.279 131.05C154.093 130.973 153.924 130.86 153.782 130.717C153.639 130.575 153.527 130.406 153.45 130.22C153.373 130.034 153.333 129.835 153.333 129.634V114.365ZM160.59 119.823H163.072V121.07C163.431 120.353 164.347 119.708 165.725 119.708C168.366 119.708 168.992 121.136 168.992 123.755V128.606H166.319V124.351C166.319 122.86 165.961 122.018 165.051 122.018C163.788 122.018 163.263 122.926 163.263 124.351V128.606H160.59V119.823ZM156.007 128.492H158.68V119.708H156.007V128.491V128.492ZM159.062 116.843C159.068 117.072 159.027 117.299 158.943 117.512C158.859 117.725 158.733 117.919 158.573 118.083C158.413 118.247 158.221 118.377 158.01 118.466C157.799 118.554 157.573 118.6 157.344 118.6C157.115 118.6 156.888 118.554 156.677 118.466C156.466 118.377 156.275 118.247 156.115 118.083C155.955 117.919 155.829 117.725 155.745 117.512C155.661 117.299 155.62 117.072 155.625 116.843C155.635 116.394 155.82 115.966 156.142 115.652C156.463 115.338 156.894 115.162 157.344 115.162C157.793 115.162 158.225 115.338 158.546 115.652C158.867 115.966 159.053 116.394 159.062 116.843V116.843Z" fill="black"/>
<defs>
<clipPath id="clip0_2175_1950">
<rect width="20" height="20" fill="white" transform="translate(107.5 112)"/>
</clipPath>
</defs>
</svg>
