<svg width="132" height="30" viewBox="0 0 132 30" fill="none" xmlns="http://www.w3.org/2000/svg">
<rect width="32.2764" height="30" rx="5" fill="#B88E2F"/>
<path d="M15.0946 19.038H18.2666V20H13.9116V10.939H15.0946V19.038Z" fill="white"/>
<rect x="49.4905" width="32.2764" height="30" rx="5" fill="#F9F1E7"/>
<path d="M62.8037 15.476L65.5857 20H64.2467L62.0757 16.464L60.0087 20H58.6957L61.4647 15.476L58.6827 10.939H60.0087L62.1927 14.488L64.2727 10.939H65.5987L62.8037 15.476ZM68.3559 19.038H71.5279V20H67.1729V10.939H68.3559V19.038Z" fill="black"/>
<rect x="98.981" width="32.2764" height="30" rx="5" fill="#F9F1E7"/>
<path d="M111.218 15.476L114 20H112.661L110.49 16.464L108.423 20H107.11L109.879 15.476L107.097 10.939H108.423L110.607 14.488L112.687 10.939H114.013L111.218 15.476ZM118.46 20.091C117.862 20.091 117.325 19.987 116.848 19.779C116.38 19.5623 116.012 19.2677 115.743 18.895C115.475 18.5137 115.336 18.076 115.327 17.582H116.588C116.632 18.0067 116.805 18.3663 117.108 18.661C117.42 18.947 117.871 19.09 118.46 19.09C119.024 19.09 119.466 18.9513 119.786 18.674C120.116 18.388 120.28 18.024 120.28 17.582C120.28 17.2353 120.185 16.9537 119.994 16.737C119.804 16.5203 119.565 16.3557 119.279 16.243C118.993 16.1303 118.608 16.009 118.122 15.879C117.524 15.723 117.043 15.567 116.679 15.411C116.324 15.255 116.016 15.0123 115.756 14.683C115.505 14.345 115.379 13.8943 115.379 13.331C115.379 12.837 115.505 12.3993 115.756 12.018C116.008 11.6367 116.359 11.342 116.809 11.134C117.269 10.926 117.793 10.822 118.382 10.822C119.232 10.822 119.925 11.0343 120.462 11.459C121.008 11.8837 121.316 12.447 121.385 13.149H120.085C120.042 12.8023 119.86 12.499 119.539 12.239C119.219 11.9703 118.794 11.836 118.265 11.836C117.771 11.836 117.368 11.966 117.056 12.226C116.744 12.4773 116.588 12.8327 116.588 13.292C116.588 13.6213 116.679 13.89 116.861 14.098C117.052 14.306 117.282 14.4663 117.55 14.579C117.828 14.683 118.213 14.8043 118.707 14.943C119.305 15.1077 119.786 15.2723 120.15 15.437C120.514 15.593 120.826 15.84 121.086 16.178C121.346 16.5073 121.476 16.958 121.476 17.53C121.476 17.972 121.359 18.388 121.125 18.778C120.891 19.168 120.545 19.4843 120.085 19.727C119.626 19.9697 119.084 20.091 118.46 20.091Z" fill="black"/>
</svg>
