<svg width="392" height="90" viewBox="0 0 392 90" fill="none" xmlns="http://www.w3.org/2000/svg">
<rect y="30" width="60" height="60" rx="10" fill="#B88E2F"/>
<path d="M27.76 54.2V52.54H31.52V67H29.68V54.2H27.76Z" fill="white"/>
<rect x="98" y="30" width="60" height="60" rx="10" fill="#F9F1E7"/>
<path d="M123.02 65.54C124.713 64.18 126.04 63.0667 127 62.2C127.96 61.32 128.767 60.4067 129.42 59.46C130.087 58.5 130.42 57.56 130.42 56.64C130.42 55.7733 130.207 55.0933 129.78 54.6C129.367 54.0933 128.693 53.84 127.76 53.84C126.853 53.84 126.147 54.1267 125.64 54.7C125.147 55.26 124.88 56.0133 124.84 56.96H123.08C123.133 55.4667 123.587 54.3133 124.44 53.5C125.293 52.6867 126.393 52.28 127.74 52.28C129.113 52.28 130.2 52.66 131 53.42C131.813 54.18 132.22 55.2267 132.22 56.56C132.22 57.6667 131.887 58.7467 131.22 59.8C130.567 60.84 129.82 61.76 128.98 62.56C128.14 63.3467 127.067 64.2667 125.76 65.32H132.64V66.84H123.02V65.54Z" fill="black"/>
<rect x="196" y="30" width="60" height="60" rx="10" fill="#F9F1E7"/>
<path d="M221.2 56.18C221.293 54.9533 221.767 53.9933 222.62 53.3C223.473 52.6067 224.58 52.26 225.94 52.26C226.847 52.26 227.627 52.4267 228.28 52.76C228.947 53.08 229.447 53.52 229.78 54.08C230.127 54.64 230.3 55.2733 230.3 55.98C230.3 56.8067 230.06 57.52 229.58 58.12C229.113 58.72 228.5 59.1067 227.74 59.28V59.38C228.607 59.5933 229.293 60.0133 229.8 60.64C230.307 61.2667 230.56 62.0867 230.56 63.1C230.56 63.86 230.387 64.5467 230.04 65.16C229.693 65.76 229.173 66.2333 228.48 66.58C227.787 66.9267 226.953 67.1 225.98 67.1C224.567 67.1 223.407 66.7333 222.5 66C221.593 65.2533 221.087 64.2 220.98 62.84H222.74C222.833 63.64 223.16 64.2933 223.72 64.8C224.28 65.3067 225.027 65.56 225.96 65.56C226.893 65.56 227.6 65.32 228.08 64.84C228.573 64.3467 228.82 63.7133 228.82 62.94C228.82 61.94 228.487 61.22 227.82 60.78C227.153 60.34 226.147 60.12 224.8 60.12H224.34V58.6H224.82C226.047 58.5867 226.973 58.3867 227.6 58C228.227 57.6 228.54 56.9867 228.54 56.16C228.54 55.4533 228.307 54.8867 227.84 54.46C227.387 54.0333 226.733 53.82 225.88 53.82C225.053 53.82 224.387 54.0333 223.88 54.46C223.373 54.8867 223.073 55.46 222.98 56.18H221.2Z" fill="black"/>
<rect x="294" y="30" width="98" height="60" rx="10" fill="#F9F1E7"/>
<path d="M334.14 67H332.74L325 55.24V67H323.6V53.02H325L332.74 64.76V53.02H334.14V67ZM347.191 60.98C347.191 61.46 347.178 61.8267 347.151 62.08H338.091C338.131 62.9067 338.331 63.6133 338.691 64.2C339.051 64.7867 339.524 65.2333 340.111 65.54C340.698 65.8333 341.338 65.98 342.031 65.98C342.938 65.98 343.698 65.76 344.311 65.32C344.938 64.88 345.351 64.2867 345.551 63.54H347.031C346.764 64.6067 346.191 65.48 345.311 66.16C344.444 66.8267 343.351 67.16 342.031 67.16C341.004 67.16 340.084 66.9333 339.271 66.48C338.458 66.0133 337.818 65.36 337.351 64.52C336.898 63.6667 336.671 62.6733 336.671 61.54C336.671 60.4067 336.898 59.4133 337.351 58.56C337.804 57.7067 338.438 57.0533 339.251 56.6C340.064 56.1467 340.991 55.92 342.031 55.92C343.071 55.92 343.978 56.1467 344.751 56.6C345.538 57.0533 346.138 57.6667 346.551 58.44C346.978 59.2 347.191 60.0467 347.191 60.98ZM345.771 60.94C345.784 60.1267 345.618 59.4333 345.271 58.86C344.938 58.2867 344.478 57.8533 343.891 57.56C343.304 57.2667 342.664 57.12 341.971 57.12C340.931 57.12 340.044 57.4533 339.311 58.12C338.578 58.7867 338.171 59.7267 338.091 60.94H345.771ZM355.472 67L352.652 62.6L349.932 67H348.452L351.972 61.54L348.492 56.08H350.072L352.852 60.42L355.552 56.08H357.012L353.532 61.48L357.052 67H355.472ZM360.772 57.26V64.04C360.772 64.7067 360.898 65.1667 361.152 65.42C361.405 65.6733 361.852 65.8 362.492 65.8H363.772V67H362.272C361.285 67 360.552 66.7733 360.072 66.32C359.592 65.8533 359.352 65.0933 359.352 64.04V57.26H357.832V56.08H359.352V53.34H360.772V56.08H363.772V57.26H360.772Z" fill="black"/>
</svg>
